<svg width="18" height="18" viewBox="0 0 18 18" fill="none" xmlns="http://www.w3.org/2000/svg">
<path d="M9.00005 0.584966C7.39904 0.523978 5.83896 1.0991 4.66062 2.18468C3.48229 3.27027 2.78148 4.77808 2.7113 6.37872C2.7113 12.0037 7.0763 16.065 8.52755 17.2462C8.66057 17.3559 8.82762 17.416 9.00005 17.416C9.17249 17.416 9.33954 17.3559 9.47255 17.2462C10.9238 16.065 15.2888 12.0375 15.2888 6.37872C15.2186 4.77808 14.5178 3.27027 13.3395 2.18468C12.1612 1.0991 10.6011 0.523978 9.00005 0.584966ZM9.00005 15.75C7.95465 14.8314 7.02527 13.7887 6.23255 12.645C4.90615 10.8202 4.16828 8.63406 4.11755 6.37872C4.18731 5.15095 4.73981 4.0006 5.6545 3.17864C6.56919 2.35668 7.77184 1.92983 9.00005 1.99122C10.2283 1.92983 11.4309 2.35668 12.3456 3.17864C13.2603 4.0006 13.8128 5.15095 13.8826 6.37872C13.8826 10.9687 10.5526 14.4337 9.00005 15.75Z" fill="white"/>
<path d="M9.00005 2.85753C8.59391 2.84098 8.18852 2.90523 7.80739 3.04653C7.42626 3.18784 7.07697 3.4034 6.77977 3.68071C6.48257 3.95803 6.24338 4.29158 6.07606 4.66203C5.90875 5.03248 5.81663 5.43246 5.80505 5.83878C5.81811 6.24462 5.91123 6.64389 6.07906 7.01365C6.24688 7.3834 6.48611 7.71636 6.783 7.99338C7.07988 8.2704 7.42858 8.48604 7.80905 8.6279C8.18952 8.76976 8.59427 8.83506 9.00005 8.82003C9.81689 8.84433 10.6102 8.54446 11.2067 7.98589C11.8032 7.42733 12.1544 6.65544 12.1838 5.83878C12.1707 5.43391 12.078 5.03559 11.9109 4.66659C11.7437 4.29759 11.5055 3.96515 11.2098 3.68827C10.9142 3.41139 10.5668 3.19551 10.1876 3.05297C9.80846 2.91042 9.40491 2.84401 9.00005 2.85753ZM9.00005 7.41378C8.55717 7.43836 8.12259 7.2864 7.79153 6.99119C7.46047 6.69597 7.25991 6.28157 7.2338 5.83878C7.25991 5.39598 7.46047 4.98158 7.79153 4.68636C8.12259 4.39115 8.55717 4.23919 9.00005 4.26378C9.44409 4.23911 9.87991 4.39073 10.2128 4.68566C10.5456 4.9806 10.7486 5.395 10.7776 5.83878C10.7486 6.28255 10.5456 6.69695 10.2128 6.99189C9.87991 7.28682 9.44409 7.43844 9.00005 7.41378Z" fill="white"/>
</svg>
