<svg xmlns="http://www.w3.org/2000/svg" viewBox="0 0 24 24" width="24px" height="24px" fill="#fff">
    <path
        d="M21.936,2.444c-0.745-0.521-1.683-0.599-2.506-0.207L1.942,11.449c-1.312,0.691-1.235,2.581,0.116,3.19 c0.289,0.13,0.541,0.228,0.738,0.282l2.144,0.536c0.739,0.186,1.531,0.049,2.167-0.375l9.088-6.979 c0.207-0.158,0.499-0.133,0.673,0.059c0.176,0.19,0.176,0.483,0.001,0.675l-6.544,7.169c-0.292,0.294-0.427,0.676-0.384,1.065 c0.043,0.389,0.257,0.732,0.587,0.942l0.035,0.018l7.945,3.783c1.217,0.58,2.642-0.216,2.788-1.556l1.691-15.531 C23.075,3.82,22.683,2.967,21.936,2.444z" />
</svg>