<?xml version="1.0" encoding="UTF-8"?>
<svg xmlns="http://www.w3.org/2000/svg" version="1.1" viewBox="0 0 1192.1 533.3">
  <defs>
    <style>
      .cls-1 {
      fill-rule: evenodd;
      }

      .cls-1, .cls-2 {
      fill: #fff;
      }
    </style>
  </defs>
  <g>
    <g id="_Слой_1" data-name="Слой_1">
      <g>
        <g>
          <path class="cls-2"
            d="M488.5,245.8c10,9.6,15,21.5,15,35.8s-2.7,20.9-8,29.8c-5.4,8.9-12.7,15.9-22.1,20.9-9.4,5.1-19.8,7.6-31.3,7.6s-14.2-.3-22.2-.9c-2.9-.2-6.3-.4-10.2-.6-3.9-.2-8.2-.3-13-.3l-21,.3c-3.7.2-9,.3-15.8.3s-.6-.6-.6-1.9.2-1.9.6-1.9c7.8,0,13.6-.6,17.3-1.7,3.7-1.1,6.3-3.1,7.7-6,1.4-2.9,2.2-7.4,2.2-13.6v-143.5c0-6.2-.7-10.7-2-13.6-1.3-2.9-3.9-4.9-7.6-6-3.7-1.1-9.4-1.7-17-1.7s-.9-.6-.9-1.9.3-1.9.9-1.9l15.1.3c8.6.4,15.6.6,21,.6s7.2-.1,10.3-.3c3.2-.2,5.9-.4,8.2-.6,6.4-.6,12.4-.9,17.9-.9,17.3,0,30.3,3.8,38.9,11.3,8.6,7.5,13,17.4,13,29.6s-3.2,18.8-9.6,26.5c-6.4,7.8-15.1,13.8-26.3,18.1,16.3,1.2,29.4,6.7,39.4,16.3ZM414.3,149.8c-2.6.8-4.5,2.8-5.7,5.9-1.2,3.1-1.9,8.1-1.9,14.9v58.9l13.9.3c15,0,26.1-3.9,33.4-11.6,7.2-7.8,10.8-18,10.8-30.8s-3.1-20.9-9.4-28.1c-6.3-7.1-16-10.7-29.2-10.7s-9.3.4-11.9,1.2ZM470.9,322.7c7.3-7.8,11-18.9,11-33.3s-4.6-28.4-13.7-38.1c-9.2-9.7-21.8-14.7-37.8-14.9-6.6-.2-14.4,0-23.5.6v76.6c0,5.4.8,9.5,2.3,12.4,1.5,2.9,4.5,5,9,6.4,4.4,1.3,10.9,2,19.3,2,15,0,26.2-3.9,33.5-11.6Z" />
          <path class="cls-2"
            d="M575.6,327.5c1.1,2.9,3.2,4.9,6.3,5.9,3.1,1,8.1,1.5,15.1,1.5s.6.6.6,1.9-.2,1.9-.6,1.9c-5.8,0-10.3-.1-13.6-.3l-19.5-.3-18.2.3c-3.5.2-8.2.3-14.2.3s-.6-.6-.6-1.9.2-1.9.6-1.9c7,0,12-.5,15.1-1.5,3.1-1,5.2-3,6.3-5.9,1.1-2.9,1.7-7.5,1.7-14v-94.9c0-6.2-.6-10.7-1.7-13.6-1.1-2.9-3.3-4.9-6.5-6-3.2-1.1-8.2-1.7-15-1.7s-.6-.6-.6-1.9.2-1.9.6-1.9l14.2.3c7.4.4,13.5.6,18.2.6s11.9-.2,19.8-.6l13.3-.3c.4,0,.6.6.6,1.9s-.2,1.9-.6,1.9c-6.6,0-11.5.6-14.8,1.9-3.3,1.2-5.5,3.4-6.6,6.4-1.1,3-1.7,7.6-1.7,13.8v94.2c0,6.4.6,11.1,1.7,14Z" />
          <path class="cls-2"
            d="M661.9,312.3c0,6,.6,10.4,1.7,13.3,1.1,2.9,3.3,5,6.5,6.2,3.2,1.2,8,1.9,14.4,1.9h20.4c10.9,0,19.6-3.4,26.1-10.2,6.5-6.8,10.9-16.2,13.1-28.2,0-.4.4-.6,1.2-.6s1.2.1,1.7.3c.5.2.8.5.8.9-1.4,9.5-2.2,22.2-2.2,38.1s-.4,2.8-1.1,3.6c-.7.7-1.9,1.1-3.6,1.1h-120.8c-.4,0-.6-.6-.6-1.9s.2-1.9.6-1.9c6.8,0,11.7-.5,14.8-1.5,3.1-1,5.1-3,6.2-6,1-3,1.5-7.6,1.5-13.8v-94.9c0-6.2-.6-10.7-1.7-13.6-1.1-2.9-3.2-4.9-6.3-6-3.1-1.1-7.9-1.7-14.5-1.7s-.6-.6-.6-1.9.2-1.9.6-1.9l13.9.3c7.8.4,13.9.6,18.2.6s11.6-.2,19.5-.6l13-.3c.6,0,.9.6.9,1.9s-.3,1.9-.9,1.9c-6.8,0-11.7.6-14.8,1.7-3.1,1.1-5.2,3.2-6.3,6.2-1.1,3-1.7,7.6-1.7,13.8v93.3Z" />
          <path class="cls-2"
            d="M809,327.5c1.1,2.9,3.2,4.9,6.3,5.9,3.1,1,8.1,1.5,15.1,1.5s.6.6.6,1.9-.2,1.9-.6,1.9c-5.8,0-10.3-.1-13.6-.3l-19.5-.3-18.2.3c-3.5.2-8.2.3-14.2.3s-.6-.6-.6-1.9.2-1.9.6-1.9c7,0,12-.5,15.1-1.5,3.1-1,5.2-3,6.3-5.9,1.1-2.9,1.7-7.5,1.7-14v-94.9c0-6.2-.6-10.7-1.7-13.6-1.1-2.9-3.3-4.9-6.5-6-3.2-1.1-8.2-1.7-15-1.7s-.6-.6-.6-1.9.2-1.9.6-1.9l14.2.3c7.4.4,13.5.6,18.2.6s11.9-.2,19.8-.6l13.3-.3c.4,0,.6.6.6,1.9s-.2,1.9-.6,1.9c-6.6,0-11.5.6-14.8,1.9-3.3,1.2-5.5,3.4-6.6,6.4-1.1,3-1.7,7.6-1.7,13.8v94.2c0,6.4.6,11.1,1.7,14Z" />
          <path class="cls-2"
            d="M1047,336.8c0,1.2-.2,1.9-.6,1.9-5.8,0-10.3-.1-13.6-.3l-18.2-.3-21,.3c-3.5.2-8.3.3-14.5.3s-.6-.6-.6-1.9.2-1.9.6-1.9c7.6,0,13.3-.6,17-1.7,3.7-1.1,6.2-3.1,7.4-6,1.2-2.9,1.6-7.4,1.2-13.6l-3.7-104.5-53.1,127.4c-.4.8-1.1,1.2-2.2,1.2s-2.1-.4-2.5-1.2l-59-117.2-.6-1.2-2.8,86.8c-.2,11,1.2,18.7,4.3,23.2,3.1,4.5,8.3,6.8,15.8,6.8s.9.6.9,1.9-.3,1.9-.9,1.9c-4.3,0-7.6-.1-9.9-.3l-13.6-.3-13,.3c-2.7.2-6.4.3-11.1.3s-.6-.6-.6-1.9.2-1.9.6-1.9c7.6,0,13-2.3,16.1-6.8,3.1-4.5,4.8-12.3,5.2-23.2l3.1-96.1c-6-7.6-13.3-11.5-21.9-11.5s-.9-.6-.9-1.9.3-1.9.9-1.9l17,.3,14.8-.3c2.7,0,4.8.9,6.5,2.8,1.6,1.9,4.2,6.3,7.7,13.3l50.7,101.1,45.7-109.4c.8-2.3,2.1-4.1,3.9-5.6,1.7-1.4,3.6-2.2,5.4-2.2l16.4.3,20.7-.3c.4,0,.6.6.6,1.9s-.2,1.9-.6,1.9c-9.3,0-15.8,1.4-19.5,4.2s-5.4,8.3-4.9,16.6l3.7,95.5c.4,6.4,1.1,11.1,2.2,14,1,2.9,3,4.9,6,5.9,3,1,7.8,1.5,14.4,1.5s.6.6.6,1.9Z" />
        </g>
        <path class="cls-1"
          d="M339.4,338.6h-194.3v-48.5c0-73,13.7-95,32.5-95s34.4,16.6,57.2,36.7l6.7-7.1c16.7-18.5,43.8-48.5,65-48.5s32.8,51.3,32.8,95.4v67ZM292.6,205.7c25.5,0,43.5,23.7,43.5,70.6v54c-33.1-34.7-62.1-63.5-97.3-95,16.7-16.6,35.2-29.6,53.7-29.6ZM235.1,238.9l.3.5c4.5,4.2,81.3,78.3,85.5,82.2h-158.7c4.8-5.4,64.9-75.2,73-82.7ZM148.4,331.1v-32.3c0-59.9,28.2-76.1,46.8-76.1s26.1,5.9,36,13.4c-29.8,31.9-55.6,61.9-82.8,95Z" />
      </g>
      <g>
        <path class="cls-2"
          d="M386.8,430.7c0,0,.1.1.1.4s0,.4-.1.4c-.8,0-1.6,0-2.6,0-.9,0-1.9,0-2.8,0s-1.9,0-2.9,0-1.8,0-2.5,0-.2-.1-.2-.4,0-.4.2-.4c1.5,0,2.5-.3,3-.8.5-.5.7-1.6.7-3.3v-13.2c0-1.2,0-2.1-.1-2.6,0-.5-.3-.8-.7-.9-.4-.1-1.1-.2-2-.2h-6.8c-.9,0-1.6,0-2,.2-.4.1-.6.4-.7.9,0,.5-.1,1.4-.1,2.7v13.1c0,1.7.2,2.8.6,3.3.4.5,1.4.8,3,.8s.1.1.1.4,0,.4-.1.4c-.7,0-1.6,0-2.5,0-.9,0-1.8,0-2.7,0s-1.9,0-2.9,0c-.9,0-1.8,0-2.6,0s-.2-.1-.2-.4,0-.4.2-.4c1.6,0,2.6-.3,3.1-.8.5-.5.7-1.6.7-3.3v-13.2c0-1.7-.2-2.8-.7-3.3-.5-.5-1.5-.7-3-.7s-.2-.1-.2-.4,0-.4.2-.4h26.7c0,0,.1.1.1.4s0,.4-.1.4c-1.7,0-2.7.3-3.1.8-.4.6-.6,1.7-.6,3.4v13.1c0,1.7.2,2.8.6,3.3.4.5,1.5.8,3.1.8Z" />
        <path class="cls-2"
          d="M389.6,447.6c-.1,0-.2-.1-.2-.4s0-.4.2-.4c1.8,0,3-.3,3.5-.8.5-.5.8-1.6.8-3.3v-29.4c0-1.7-.3-2.7-1-3.3-.7-.5-2-.8-4-.8s-.2-.1-.2-.4,0-.4.2-.4h7.1c.4,0,.7,0,.9.3.2.2.2.6.2,1.2v32.7c0,1.1.1,1.9.4,2.5.3.6.9,1,1.7,1.2.8.2,2.1.3,3.7.3s.2.1.2.4,0,.4-.2.4c-1.1,0-2.2,0-3.5,0-1.3,0-2.6,0-4,0s-2.2,0-3.2,0c-1,0-2,0-2.7,0ZM403.5,432.1c-1.5,0-2.9-.2-4-.5-1.1-.4-2.4-1-3.8-2l.9-3.2c1,1.3,2.2,2.4,3.5,3.2,1.3.9,3,1.3,5.2,1.3s3.8-.9,5.1-2.7c1.4-1.8,2.1-4.4,2.1-7.7s-.8-6-2.3-7.8c-1.5-1.8-3.4-2.7-5.5-2.7s-3.3.5-4.6,1.4c-1.3,1-2.6,2.1-3.8,3.5l-.5-.5c2-2.3,3.9-4,5.8-5.1,1.8-1.1,3.7-1.6,5.6-1.6s3.1.4,4.5,1.3c1.4.8,2.5,2.1,3.3,3.7.8,1.6,1.3,3.6,1.3,5.9s-.4,4.4-1.2,6.1c-.8,1.7-1.9,3.1-3.2,4.2-1.3,1.1-2.7,1.9-4.1,2.4-1.5.5-2.8.8-4.1.8Z" />
        <path class="cls-2"
          d="M432.1,432.1c-2.3,0-4.3-.6-6.1-1.7-1.7-1.1-3.1-2.7-4-4.6-.9-1.9-1.4-4-1.4-6.2s.4-3.8,1.1-5.3c.7-1.5,1.7-2.7,3-3.7,1.3-1,2.6-1.7,4.1-2.2s2.9-.7,4.3-.7c2.4,0,4.5.6,6.2,1.8,1.7,1.2,3,2.7,3.9,4.5.9,1.8,1.4,3.8,1.4,5.8s-.6,4.7-1.7,6.5c-1.1,1.8-2.7,3.2-4.5,4.2-1.9,1-4,1.5-6.3,1.5ZM433.8,431c2.1,0,3.7-.7,5-2.2,1.2-1.5,1.8-3.9,1.8-7.2s-.4-4.7-1.2-6.6c-.8-1.9-1.9-3.4-3.3-4.5-1.4-1.1-3-1.6-4.8-1.6s-3.7.8-4.9,2.3c-1.2,1.5-1.8,3.7-1.8,6.6s.4,4.6,1.2,6.6c.8,2,1.9,3.6,3.3,4.8,1.4,1.2,3,1.8,4.8,1.8Z" />
        <path class="cls-2"
          d="M456.3,432.1c-2.1,0-3.8-1-5.3-3-1.4-2-2.2-4.8-2.2-8.3s.3-4.3,1-6c.6-1.7,1.5-3,2.5-4s2.1-1.8,3.2-2.3c1.1-.5,2.2-.7,3.2-.7s2,.3,3.2,1c1.2.7,2.3,2,3.5,3.9l-.5,2.4c-.9-1.7-1.9-3.2-3.2-4.4-1.3-1.2-2.6-1.8-4-1.8s-2.9.9-3.8,2.7-1.3,4.2-1.3,7.2.5,6.4,1.6,8.4,2.4,3,4.1,3,2.6-.5,3.7-1.4c1.1-1,2-1.9,2.8-2.9l.6.4c-1.7,2-3.2,3.5-4.7,4.5-1.5.9-3,1.4-4.3,1.4ZM458.1,447.6c-.1,0-.2-.1-.2-.4s0-.4.2-.4c1.7,0,2.9-.1,3.7-.3.8-.2,1.4-.6,1.7-1.2.3-.6.4-1.4.4-2.5v-46.7c0-1.4-.1-2.4-.4-3-.3-.6-.7-1-1.4-1s-1.5.3-2.7.8c-.2,0-.3,0-.4-.2,0-.2,0-.4,0-.4l7.5-3.6c0,0,.2,0,.2,0,.1,0,.2,0,.4.1.1,0,.2.2.2.3v53.7c0,1.1.1,1.9.4,2.5.3.6.8,1,1.6,1.2.8.2,1.9.3,3.5.3s.1.1.1.4,0,.4-.1.4c-1,0-2.1,0-3.3,0-1.2,0-2.5,0-3.7,0s-2.8,0-4.1,0c-1.3,0-2.5,0-3.5,0ZM472.3,432.1c-1,0-2.1-.3-3.2-1-1.2-.7-2.3-2-3.4-3.9l.5-2.4c.8,1.7,1.9,3.2,3.1,4.4,1.3,1.2,2.6,1.8,4,1.8s3-.9,3.9-2.7c.9-1.8,1.4-4.2,1.4-7.2s-.6-6.4-1.7-8.4c-1.1-2-2.5-3-4.1-3s-2.5.5-3.6,1.4-2.1,1.9-2.9,2.9l-.5-.4c1.7-2.1,3.2-3.6,4.7-4.5,1.5-.9,2.9-1.4,4.3-1.4,2,0,3.8,1,5.3,3,1.5,2,2.2,4.8,2.2,8.3s-.3,4.3-1,6-1.5,3-2.5,4-2.1,1.8-3.3,2.3c-1.2.5-2.2.7-3.2.7Z" />
        <path class="cls-2"
          d="M498,432.1c-2.3,0-4.3-.6-6.1-1.7-1.7-1.1-3.1-2.7-4-4.6-.9-1.9-1.4-4-1.4-6.2s.4-3.8,1.1-5.3c.7-1.5,1.7-2.7,3-3.7,1.3-1,2.6-1.7,4.1-2.2s2.9-.7,4.3-.7c2.4,0,4.5.6,6.2,1.8,1.7,1.2,3,2.7,3.9,4.5.9,1.8,1.4,3.8,1.4,5.8s-.6,4.7-1.7,6.5c-1.1,1.8-2.7,3.2-4.5,4.2-1.9,1-4,1.5-6.3,1.5ZM499.7,431c2.1,0,3.7-.7,5-2.2,1.2-1.5,1.8-3.9,1.8-7.2s-.4-4.7-1.2-6.6c-.8-1.9-1.9-3.4-3.3-4.5-1.4-1.1-3-1.6-4.8-1.6s-3.7.8-4.9,2.3c-1.2,1.5-1.8,3.7-1.8,6.6s.4,4.6,1.2,6.6c.8,2,1.9,3.6,3.3,4.8,1.4,1.2,3,1.8,4.8,1.8Z" />
        <path class="cls-2"
          d="M513.6,447.6c-.1,0-.2-.1-.2-.4s0-.4.2-.4c1.8,0,3-.3,3.5-.8.5-.5.8-1.6.8-3.3v-29.4c0-1.7-.3-2.7-1-3.3-.7-.5-2-.8-4-.8s-.2-.1-.2-.4,0-.4.2-.4h7.1c.4,0,.7,0,.9.3.2.2.2.6.2,1.2v32.7c0,1.1.1,1.9.4,2.5.3.6.9,1,1.7,1.2.8.2,2.1.3,3.7.3s.2.1.2.4,0,.4-.2.4c-1.1,0-2.2,0-3.5,0-1.3,0-2.6,0-4,0s-2.2,0-3.2,0c-1,0-2,0-2.7,0ZM527.5,432.1c-1.5,0-2.9-.2-4-.5-1.1-.4-2.4-1-3.8-2l.9-3.2c1,1.3,2.2,2.4,3.5,3.2,1.3.9,3,1.3,5.2,1.3s3.8-.9,5.1-2.7c1.4-1.8,2.1-4.4,2.1-7.7s-.8-6-2.3-7.8c-1.5-1.8-3.4-2.7-5.5-2.7s-3.3.5-4.6,1.4c-1.3,1-2.6,2.1-3.8,3.5l-.5-.5c2-2.3,3.9-4,5.8-5.1,1.8-1.1,3.7-1.6,5.6-1.6s3.1.4,4.5,1.3c1.4.8,2.5,2.1,3.3,3.7.8,1.6,1.3,3.6,1.3,5.9s-.4,4.4-1.2,6.1c-.8,1.7-1.9,3.1-3.2,4.2-1.3,1.1-2.7,1.9-4.1,2.4-1.5.5-2.8.8-4.1.8Z" />
        <path class="cls-2"
          d="M548.1,426.6v-13.2c0-1.7-.2-2.8-.7-3.3-.5-.5-1.5-.7-3-.7s-.2-.1-.2-.4,0-.4.2-.4c.7,0,1.6,0,2.5,0,.9,0,1.9,0,2.9,0s1.9,0,2.8,0,1.8,0,2.5,0,.1.1.1.4,0,.4-.1.4c-1.7,0-2.7.3-3.1.8-.4.6-.6,1.7-.6,3.4v13.1c0,1.7.2,2.8.6,3.3.4.5,1.5.8,3.1.8s.1.1.1.4,0,.4-.1.4c-.8,0-1.6,0-2.6,0-.9,0-1.9,0-2.8,0s-1.9,0-2.9,0c-.9,0-1.8,0-2.6,0s-.2-.1-.2-.4,0-.4.2-.4c1.6,0,2.6-.3,3.1-.8.5-.5.7-1.6.7-3.3ZM549.9,428.5l-.8-.8,16-16,.8.8-16,16ZM563.9,426.6v-13.2c0-1.7-.2-2.8-.7-3.3-.5-.5-1.5-.7-3-.7s-.2-.1-.2-.4,0-.4.2-.4c.7,0,1.6,0,2.5,0s1.9,0,2.9,0,1.9,0,2.8,0c.9,0,1.8,0,2.5,0s.1.1.1.4,0,.4-.1.4c-1.7,0-2.7.3-3.1.8-.4.6-.6,1.7-.6,3.4v13.1c0,1.7.2,2.8.6,3.3.4.5,1.5.8,3.1.8s.1.1.1.4,0,.4-.1.4c-.8,0-1.6,0-2.6,0-.9,0-1.9,0-2.8,0s-2,0-2.9,0c-1,0-1.8,0-2.6,0s-.2-.1-.2-.4,0-.4.2-.4c1.6,0,2.6-.3,3.1-.8.5-.5.7-1.6.7-3.3Z" />
        <path class="cls-2"
          d="M586.1,432.1c-2.4,0-4.5-.5-6.1-1.6-1.7-1.1-2.9-2.5-3.7-4.2-.8-1.7-1.2-3.6-1.2-5.5s.6-4.6,1.7-6.5c1.1-1.9,2.6-3.4,4.5-4.5,1.9-1.1,4.1-1.7,6.5-1.7s3.8.5,5,1.6c1.2,1,1.7,2.5,1.7,4.3s0,.8-.1,1c0,.2-.3.4-.6.4h-3.4c.2-1.9-.2-3.4-1-4.5-.8-1-2-1.6-3.6-1.6-2.2,0-3.9.8-5,2.5-1.2,1.7-1.7,3.9-1.7,6.7s.4,4.2,1.1,6c.7,1.7,1.8,3.1,3.2,4.1,1.4,1,3.1,1.5,5,1.5s2.1-.2,3.1-.5c1.1-.3,2.1-.8,3-1.5,0,0,.2,0,.3.1.1.2.2.3,0,.4-1.4,1.2-2.8,2.1-4.2,2.6-1.4.5-2.9.8-4.4.8ZM577.8,415.4v-.8c0,0,13.4-.3,13.4-.3v.9h-13.4Z" />
        <path class="cls-2"
          d="M602.6,426.6v-13.2c0-1.7-.2-2.8-.7-3.3-.5-.5-1.5-.7-3-.7s-.2-.1-.2-.4,0-.4.2-.4c.7,0,1.6,0,2.5,0,.9,0,1.9,0,2.9,0s1.9,0,2.8,0,1.8,0,2.5,0,.1.1.1.4,0,.4-.1.4c-1.7,0-2.7.3-3.1.8-.4.6-.6,1.7-.6,3.4v13.1c0,1.7.2,2.8.6,3.3.4.5,1.5.8,3.1.8s.1.1.1.4,0,.4-.1.4c-.8,0-1.6,0-2.6,0-.9,0-1.9,0-2.8,0s-1.9,0-2.9,0c-.9,0-1.8,0-2.6,0s-.2-.1-.2-.4,0-.4.2-.4c1.6,0,2.6-.3,3.1-.8.5-.5.7-1.6.7-3.3ZM604.1,420.6v-1.2h15.9v1.2h-15.9ZM618.4,426.6v-13.2c0-1.7-.2-2.8-.7-3.3-.5-.5-1.5-.7-3-.7s-.2-.1-.2-.4,0-.4.2-.4c.7,0,1.6,0,2.5,0s1.9,0,2.9,0,1.9,0,2.8,0c.9,0,1.8,0,2.5,0s.1.1.1.4,0,.4-.1.4c-1.7,0-2.7.3-3.1.8-.4.6-.6,1.7-.6,3.4v13.1c0,1.7.2,2.8.6,3.3.4.5,1.5.8,3.1.8s.1.1.1.4,0,.4-.1.4c-.8,0-1.6,0-2.6,0-.9,0-1.9,0-2.8,0s-2,0-2.9,0c-1,0-1.8,0-2.6,0s-.2-.1-.2-.4,0-.4.2-.4c1.6,0,2.6-.3,3.1-.8.5-.5.7-1.6.7-3.3Z" />
        <path class="cls-2"
          d="M634.4,431.4c0,0-.1-.1-.1-.4s0-.4.1-.4c1.6,0,2.7-.3,3.1-.8.5-.5.7-1.6.7-3.3v-13.1c0-1.6-.2-2.7-.5-3.2-.4-.5-1.2-.8-2.4-.8s-2.7.5-3.6,1.4c-.9.9-1.4,2.7-1.6,5.5,0,0-.1.1-.4.1s-.4,0-.4-.1v-2.5c0-1.1,0-2.3,0-3.5,0-1.2,0-2.1,0-2.9s.1-.3.4-.3.4,0,.4.3c0,.6.9.9,2.7,1,1.8.1,4.2.2,7.1.2s3.6,0,5.1,0c1.5,0,2.6-.1,3.5-.3s1.2-.4,1.2-.8.1-.3.4-.3.4,0,.4.3v2.9c0,1.2,0,2.3,0,3.5,0,1.1,0,2,0,2.5s-.1.1-.4.1-.4,0-.4-.1c-.2-2.7-.7-4.5-1.7-5.5-1-.9-2.2-1.4-3.6-1.4s-2,.3-2.3.8c-.3.5-.5,1.6-.5,3.2v13.1c0,1.7.2,2.8.6,3.3.4.5,1.5.8,3.1.8s.2.1.2.4,0,.4-.2.4c-.7,0-1.6,0-2.5,0-.9,0-1.9,0-2.9,0s-1.9,0-2.9,0c-1,0-1.8,0-2.6,0Z" />
        <path class="cls-2"
          d="M659.3,431.8c-1.3,0-2.2-.3-2.8-1-.6-.7-.9-1.5-.9-2.4s.4-2,1.3-2.6c.9-.6,2.3-1.3,4.2-2l7.7-2.8.2.6-6.8,2.6c-.9.4-1.5.7-1.9,1.2-.4.4-.6,1-.6,1.7s.2,1.5.7,1.9c.5.5,1.1.7,1.8.7s.8,0,1.2-.1c.4,0,.8-.2,1.2-.4l5-2.5v.7c.1,0-5,2.8-5,2.8-1.2.6-2.2,1-3,1.3-.8.3-1.6.4-2.4.4ZM670.8,431.7c-.2,0-.3.1-.5.1-.5,0-1-.4-1.5-1.3-.5-.8-.7-2.1-.7-3.7v-10.6c0-1.8-.2-3.3-.5-4.3-.3-1-.8-1.7-1.4-2.1-.6-.4-1.2-.6-1.9-.6s-1.8.2-2.4.7c-.6.5-1.1,1.1-1.4,1.9-.3.7-.5,1.5-.6,2.2,0,.6-.2,1.1-.5,1.5-.3.5-.9.7-1.7.7s-1.1-.2-1.5-.5c-.4-.3-.5-.7-.5-1.3s.4-1.4,1.1-2.2c.7-.8,1.6-1.5,2.7-2.1,1.1-.6,2.2-1.2,3.4-1.6,1.2-.4,2.3-.6,3.4-.6s2.7.5,3.7,1.6c1,1,1.5,2.7,1.5,4.9v10.4c0,1.4.2,2.4.5,3,.4.6.9.9,1.7.9s1.7-.3,3-.8c.2,0,.3,0,.4.2,0,.2,0,.4-.2.4l-6.1,2.9Z" />
        <path class="cls-2"
          d="M678.9,431.4c-.1,0-.2-.1-.2-.4s0-.4.2-.4c1.6,0,2.6-.3,3-.8.5-.5.7-1.7.7-3.4v-13.1c0-1.7-.2-2.8-.7-3.3-.5-.5-1.5-.7-3-.7s-.2-.1-.2-.4,0-.4.2-.4c.7,0,1.6,0,2.5,0,.9,0,1.8,0,2.7,0s1.9,0,2.9,0c.9,0,1.8,0,2.5,0s.1.1.1.4,0,.4-.1.4c-1.6,0-2.6.2-3,.7-.4.5-.6,1.6-.6,3.3v13.2c0,1.1,0,2,.1,2.5,0,.5.3.8.7.9.4.1,1,.2,1.9.2h6.7c1,0,1.7,0,2.1-.2.4-.1.7-.4.7-1,0-.5.1-1.4.1-2.6v-13.1c0-1.7-.2-2.8-.7-3.3-.5-.5-1.4-.7-3-.7s-.1-.1-.1-.4,0-.4.1-.4c.7,0,1.6,0,2.4,0,.9,0,1.8,0,2.7,0s2,0,3,0c.9,0,1.8,0,2.6,0s.2.1.2.4,0,.4-.2.4c-1.7,0-2.7.2-3.2.7-.5.5-.7,1.6-.7,3.3v13.2c0,1,0,1.7.2,2.2.2.5.5.9,1.1,1,.6.2,1.4.3,2.5.3s.5,0,.6,0c0,0,0,.3,0,.6s0,.9,0,1.5c0,.6-.1,1.4-.2,2.4,0,1,0,2.5,0,4.3s-.1.2-.4.2-.4,0-.4-.2c0-2-.2-3.6-.5-4.7-.3-1.1-.9-1.9-1.8-2.4-.9-.5-2.2-.7-3.8-.7h-19.9Z" />
        <path class="cls-2"
          d="M712.9,426.6v-13.2c0-1.7-.2-2.8-.7-3.3-.5-.5-1.5-.7-3-.7s-.2-.1-.2-.4,0-.4.2-.4c.7,0,1.6,0,2.5,0,.9,0,1.9,0,2.9,0s1.9,0,2.8,0,1.8,0,2.5,0,.1.1.1.4,0,.4-.1.4c-1.7,0-2.7.3-3.1.8-.4.6-.6,1.7-.6,3.4v13.1c0,1.7.2,2.8.6,3.3.4.5,1.5.8,3.1.8s.1.1.1.4,0,.4-.1.4c-.8,0-1.6,0-2.6,0-.9,0-1.9,0-2.8,0s-1.9,0-2.9,0c-.9,0-1.8,0-2.6,0s-.2-.1-.2-.4,0-.4.2-.4c1.6,0,2.6-.3,3.1-.8.5-.5.7-1.6.7-3.3ZM714.7,428.5l-.8-.8,16-16,.8.8-16,16ZM728.8,426.6v-13.2c0-1.7-.2-2.8-.7-3.3-.5-.5-1.5-.7-3-.7s-.2-.1-.2-.4,0-.4.2-.4c.7,0,1.6,0,2.5,0s1.9,0,2.9,0,1.9,0,2.8,0c.9,0,1.8,0,2.5,0s.1.1.1.4,0,.4-.1.4c-1.7,0-2.7.3-3.1.8-.4.6-.6,1.7-.6,3.4v13.1c0,1.7.2,2.8.6,3.3.4.5,1.5.8,3.1.8s.1.1.1.4,0,.4-.1.4c-.8,0-1.6,0-2.6,0-.9,0-1.9,0-2.8,0s-2,0-2.9,0c-1,0-1.8,0-2.6,0s-.2-.1-.2-.4,0-.4.2-.4c1.6,0,2.6-.3,3.1-.8.5-.5.7-1.6.7-3.3Z" />
        <path class="cls-2"
          d="M751.3,432.1c-2.3,0-4.3-.6-6.1-1.7-1.7-1.1-3.1-2.7-4-4.6-.9-1.9-1.4-4-1.4-6.2s.4-3.8,1.1-5.3c.7-1.5,1.7-2.7,3-3.7,1.3-1,2.6-1.7,4.1-2.2s2.9-.7,4.3-.7c2.4,0,4.5.6,6.2,1.8,1.7,1.2,3,2.7,3.9,4.5.9,1.8,1.4,3.8,1.4,5.8s-.6,4.7-1.7,6.5c-1.1,1.8-2.7,3.2-4.5,4.2-1.9,1-4,1.5-6.3,1.5ZM753,431c2.1,0,3.7-.7,5-2.2,1.2-1.5,1.8-3.9,1.8-7.2s-.4-4.7-1.2-6.6c-.8-1.9-1.9-3.4-3.3-4.5-1.4-1.1-3-1.6-4.8-1.6s-3.7.8-4.9,2.3c-1.2,1.5-1.8,3.7-1.8,6.6s.4,4.6,1.2,6.6c.8,2,1.9,3.6,3.3,4.8,1.4,1.2,3,1.8,4.8,1.8Z" />
        <path class="cls-2"
          d="M771.6,426.6v-13.2c0-1.7-.2-2.8-.7-3.3s-1.5-.7-3-.7-.2-.1-.2-.4,0-.4.2-.4c.7,0,1.6,0,2.5,0,.9,0,1.9,0,2.9,0s1.9,0,2.8,0,1.8,0,2.5,0,.1.1.1.4,0,.4-.1.4c-1.7,0-2.7.3-3.1.8-.4.6-.6,1.7-.6,3.4v13.1c0,1.7.2,2.8.6,3.3.4.5,1.5.8,3.1.8s.1.1.1.4,0,.4-.1.4c-.8,0-1.6,0-2.6,0-.9,0-1.9,0-2.8,0s-1.9,0-2.9,0c-.9,0-1.8,0-2.6,0s-.2-.1-.2-.4,0-.4.2-.4c1.6,0,2.6-.3,3.1-.8.5-.5.7-1.6.7-3.3ZM773.1,420.6v-1.2h15.9v1.2h-15.9ZM787.5,426.6v-13.2c0-1.7-.2-2.8-.7-3.3s-1.5-.7-3-.7-.2-.1-.2-.4,0-.4.2-.4c.7,0,1.6,0,2.5,0,.9,0,1.9,0,2.9,0s1.9,0,2.8,0,1.8,0,2.5,0,.1.1.1.4,0,.4-.1.4c-1.7,0-2.7.3-3.1.8-.4.6-.6,1.7-.6,3.4v13.1c0,1.7.2,2.8.6,3.3.4.5,1.5.8,3.1.8s.1.1.1.4,0,.4-.1.4c-.8,0-1.6,0-2.6,0-.9,0-1.9,0-2.8,0s-2,0-2.9,0-1.8,0-2.6,0-.2-.1-.2-.4,0-.4.2-.4c1.6,0,2.6-.3,3.1-.8.5-.5.7-1.6.7-3.3Z" />
        <path class="cls-2"
          d="M802,426.6v-13.2c0-1.7-.2-2.8-.7-3.3s-1.5-.7-3-.7-.2-.1-.2-.4,0-.4.2-.4c.7,0,1.6,0,2.5,0,.9,0,1.9,0,2.9,0s1.9,0,2.8,0,1.8,0,2.5,0,.1.1.1.4,0,.4-.1.4c-1.7,0-2.7.3-3.1.8-.4.6-.6,1.7-.6,3.4v13.1c0,1.7.2,2.8.6,3.3.4.5,1.5.8,3.1.8s.1.1.1.4,0,.4-.1.4c-.8,0-1.6,0-2.6,0-.9,0-1.9,0-2.8,0s-1.9,0-2.9,0c-.9,0-1.8,0-2.6,0s-.2-.1-.2-.4,0-.4.2-.4c1.6,0,2.6-.3,3.1-.8.5-.5.7-1.6.7-3.3ZM803.6,420.6v-1.2h15.9v1.2h-15.9ZM817.9,426.6v-13.2c0-1.7-.2-2.8-.7-3.3s-1.5-.7-3-.7-.2-.1-.2-.4,0-.4.2-.4c.7,0,1.6,0,2.5,0,.9,0,1.9,0,2.9,0s1.9,0,2.8,0,1.8,0,2.5,0,.1.1.1.4,0,.4-.1.4c-1.7,0-2.7.3-3.1.8-.4.6-.6,1.7-.6,3.4v13.1c0,1.7.2,2.8.6,3.3.4.5,1.5.8,3.1.8s.1.1.1.4,0,.4-.1.4c-.8,0-1.6,0-2.6,0-.9,0-1.9,0-2.8,0s-2,0-2.9,0-1.8,0-2.6,0-.2-.1-.2-.4,0-.4.2-.4c1.6,0,2.6-.3,3.1-.8.5-.5.7-1.6.7-3.3Z" />
        <path class="cls-2"
          d="M835.8,413.5v13.1c0,1.4.3,2.4.9,3.1.6.6,1.9.9,3.7.9s3.3-.4,4.2-1.3c.9-.9,1.3-2.2,1.3-3.8s-.5-3.4-1.4-4.6c-.9-1.2-2.5-1.8-4.7-1.8s-1.7,0-2.5.2c-.8.2-1.7.5-2.6.9l-.4-.8c1.3-.6,2.5-.9,3.8-1.1,1.3-.2,2.5-.3,3.7-.3,5.2,0,7.8,2,7.8,6.1s-.8,3.9-2.3,5.3c-1.5,1.4-3.5,2.1-5.8,2.1s-1.4,0-2.2,0-1.8,0-2.7-.1-1.7,0-2.5,0-1.9,0-2.9,0c-.9,0-1.8,0-2.6,0s-.2-.1-.2-.4,0-.4.2-.4c1.6,0,2.6-.3,3.1-.8.5-.5.7-1.6.7-3.3v-13.2c0-1.7-.2-2.8-.7-3.3s-1.5-.7-3-.7-.2-.1-.2-.4,0-.4.2-.4c.7,0,1.6,0,2.5,0,.9,0,1.9,0,2.9,0s2.2,0,3.2,0c1,0,2,0,2.8,0s.2.1.2.4,0,.4-.2.4c-1.9,0-3.1.3-3.6.8-.5.6-.8,1.7-.8,3.4ZM851.5,431.4c-.1,0-.2-.1-.2-.4s0-.4.2-.4c1.7,0,2.7-.3,3.1-.8.4-.5.6-1.6.6-3.3v-13.2c0-1.7-.2-2.8-.6-3.3s-1.5-.7-3.1-.7-.2-.1-.2-.4,0-.4.2-.4c.7,0,1.6,0,2.5,0,.9,0,1.9,0,2.9,0s1.9,0,2.8,0c.9,0,1.8,0,2.4,0s.2.1.2.4,0,.4-.2.4c-1.6,0-2.6.3-3,.8-.5.6-.7,1.7-.7,3.4v13.1c0,1.7.2,2.8.7,3.3.5.5,1.5.8,3,.8s.2.1.2.4,0,.4-.2.4c-.7,0-1.5,0-2.4,0-.9,0-1.9,0-2.8,0s-2,0-2.9,0c-.9,0-1.8,0-2.6,0Z" />
        <path class="cls-2"
          d="M877.4,432.1c-2.4,0-4.5-.5-6.1-1.6-1.7-1.1-2.9-2.5-3.7-4.2-.8-1.7-1.2-3.6-1.2-5.5s.6-4.6,1.7-6.5,2.6-3.4,4.5-4.5c1.9-1.1,4.1-1.7,6.5-1.7s3.8.5,5,1.6c1.2,1,1.7,2.5,1.7,4.3s0,.8-.1,1c0,.2-.3.4-.6.4h-3.4c.2-1.9-.2-3.4-1-4.5-.8-1-2-1.6-3.6-1.6-2.2,0-3.9.8-5,2.5-1.2,1.7-1.7,3.9-1.7,6.7s.4,4.2,1.1,6c.7,1.7,1.8,3.1,3.2,4.1,1.4,1,3.1,1.5,5,1.5s2.1-.2,3.1-.5c1.1-.3,2.1-.8,3-1.5,0,0,.2,0,.3.1.1.2.2.3,0,.4-1.4,1.2-2.8,2.1-4.2,2.6-1.4.5-2.9.8-4.4.8ZM869.2,415.4v-.8c0,0,13.4-.3,13.4-.3v.9h-13.4Z" />
        <path class="cls-2"
          d="M909.1,431.4c0,0-.1-.1-.1-.4s0-.4.1-.4c1.6,0,2.7-.3,3.1-.8.5-.5.7-1.6.7-3.3v-13.1c0-1.6-.2-2.7-.5-3.2-.4-.5-1.2-.8-2.4-.8s-2.7.5-3.6,1.4c-.9.9-1.4,2.7-1.6,5.5,0,0-.1.1-.4.1s-.4,0-.4-.1v-2.5c0-1.1,0-2.3,0-3.5,0-1.2,0-2.1,0-2.9s.1-.3.4-.3.4,0,.4.3c0,.6.9.9,2.7,1,1.8.1,4.2.2,7.1.2s3.6,0,5.1,0c1.5,0,2.6-.1,3.5-.3.8-.2,1.2-.4,1.2-.8s.1-.3.4-.3.4,0,.4.3v2.9c0,1.2,0,2.3,0,3.5,0,1.1,0,2,0,2.5s-.1.1-.4.1-.4,0-.4-.1c-.2-2.7-.7-4.5-1.7-5.5-1-.9-2.2-1.4-3.6-1.4s-2,.3-2.3.8c-.3.5-.5,1.6-.5,3.2v13.1c0,1.7.2,2.8.6,3.3.4.5,1.5.8,3.1.8s.2.1.2.4,0,.4-.2.4c-.7,0-1.6,0-2.5,0s-1.9,0-2.9,0-1.9,0-2.9,0c-1,0-1.8,0-2.6,0Z" />
        <path class="cls-2"
          d="M952.5,408.6c.1,0,.2.1.2.4s0,.4-.2.4c-1,0-1.8.3-2.5,1-.7.7-1.4,1.8-2,3.5l-7.2,19.2c-1.4,3.8-2.8,6.8-4.1,8.9-1.3,2.2-2.6,3.7-4,4.6-1.4.9-2.9,1.4-4.6,1.4s-1.5-.2-2.1-.6c-.6-.4-.9-1-.9-1.7s.2-1,.6-1.3c.4-.3.8-.4,1.3-.4.8,0,1.4.1,1.8.4.4.2.8.5,1.2.7.4.2.9.4,1.5.4.9,0,1.9-.4,2.7-1.3.9-.9,1.8-2.4,2.9-4.5s2.2-5,3.6-8.7v1.7c0,0-9.4-18.9-9.4-18.9-.9-1.7-1.5-2.9-2-3.4s-1.1-.8-1.9-.8-.1-.1-.1-.4,0-.4.1-.4c.6,0,1.3,0,2,0,.7,0,1.3,0,2,0,1.3,0,2.4,0,3.4,0s1.9,0,2.7,0,.1.1.1.4,0,.4-.1.4c-1.3,0-2.2.2-2.9.5-.6.3-.7.9-.3,1.8l8.1,16.6-1.4,2.4,5.8-16.6c.6-1.8.6-3,0-3.7-.6-.7-2-1-4-1s-.1-.1-.1-.4,0-.4.1-.4c.9,0,1.8,0,2.7,0s1.9,0,3.3,0,1.6,0,2.1,0,1.2,0,1.9,0Z" />
        <path class="cls-2"
          d="M953.7,447.6c-.1,0-.2-.1-.2-.4s0-.4.2-.4c1.8,0,3-.3,3.5-.8.5-.5.8-1.6.8-3.3v-29.4c0-1.7-.3-2.7-1-3.3s-2-.8-4-.8-.2-.1-.2-.4,0-.4.2-.4h7.1c.4,0,.7,0,.9.3s.2.6.2,1.2v32.7c0,1.1.1,1.9.4,2.5.3.6.9,1,1.7,1.2.8.2,2.1.3,3.7.3s.2.1.2.4,0,.4-.2.4c-1.1,0-2.2,0-3.5,0-1.3,0-2.6,0-4,0s-2.2,0-3.2,0c-1,0-2,0-2.7,0ZM967.6,432.1c-1.5,0-2.9-.2-4-.5-1.1-.4-2.4-1-3.8-2l.9-3.2c1,1.3,2.2,2.4,3.5,3.2,1.3.9,3,1.3,5.2,1.3s3.8-.9,5.1-2.7c1.4-1.8,2.1-4.4,2.1-7.7s-.8-6-2.3-7.8c-1.5-1.8-3.4-2.7-5.5-2.7s-3.3.5-4.6,1.4c-1.3,1-2.6,2.1-3.8,3.5l-.5-.5c2-2.3,3.9-4,5.8-5.1,1.8-1.1,3.7-1.6,5.6-1.6s3.1.4,4.5,1.3c1.4.8,2.5,2.1,3.3,3.7.8,1.6,1.3,3.6,1.3,5.9s-.4,4.4-1.2,6.1c-.8,1.7-1.9,3.1-3.2,4.2-1.3,1.1-2.7,1.9-4.1,2.4-1.5.5-2.8.8-4.1.8Z" />
        <path class="cls-2"
          d="M991.5,413.5v13.1c0,1.4.3,2.4.9,3.1.6.6,1.9.9,3.7.9s3.3-.4,4.2-1.3c.9-.9,1.3-2.2,1.3-3.8s-.5-3.4-1.4-4.6c-.9-1.2-2.5-1.8-4.7-1.8s-1.7,0-2.5.2c-.8.2-1.7.5-2.6.9l-.4-.8c1.3-.6,2.5-.9,3.8-1.1,1.3-.2,2.5-.3,3.7-.3,5.2,0,7.8,2,7.8,6.1s-.8,3.9-2.3,5.3c-1.5,1.4-3.5,2.1-5.8,2.1s-1.4,0-2.2,0-1.8,0-2.7-.1-1.7,0-2.5,0-1.9,0-2.9,0c-.9,0-1.8,0-2.6,0s-.2-.1-.2-.4,0-.4.2-.4c1.6,0,2.6-.3,3.1-.8.5-.5.7-1.6.7-3.3v-13.2c0-1.7-.2-2.8-.7-3.3s-1.5-.7-3-.7-.2-.1-.2-.4,0-.4.2-.4c.7,0,1.6,0,2.5,0,.9,0,1.9,0,2.9,0s2.2,0,3.2,0c1,0,2,0,2.8,0s.2.1.2.4,0,.4-.2.4c-1.9,0-3.1.3-3.6.8-.5.6-.8,1.7-.8,3.4ZM1007.2,431.4c-.1,0-.2-.1-.2-.4s0-.4.2-.4c1.7,0,2.7-.3,3.1-.8.4-.5.6-1.6.6-3.3v-13.2c0-1.7-.2-2.8-.6-3.3s-1.5-.7-3.1-.7-.2-.1-.2-.4,0-.4.2-.4c.7,0,1.6,0,2.5,0,.9,0,1.9,0,2.9,0s1.9,0,2.8,0c.9,0,1.8,0,2.4,0s.2.1.2.4,0,.4-.2.4c-1.6,0-2.6.3-3,.8-.5.6-.7,1.7-.7,3.4v13.1c0,1.7.2,2.8.7,3.3.5.5,1.5.8,3,.8s.2.1.2.4,0,.4-.2.4c-.7,0-1.5,0-2.4,0-.9,0-1.9,0-2.8,0s-2,0-2.9,0c-.9,0-1.8,0-2.6,0Z" />
        <path class="cls-2"
          d="M363.9,476.6v-13.2c0-1.7-.2-2.8-.7-3.3-.5-.5-1.5-.7-3-.7s-.2-.1-.2-.4,0-.4.2-.4c.7,0,1.6,0,2.5,0,.9,0,1.9,0,2.9,0s1.9,0,2.8,0,1.8,0,2.5,0,.1.1.1.4,0,.4-.1.4c-1.7,0-2.7.3-3.1.8-.4.6-.6,1.7-.6,3.4v13.1c0,1.7.2,2.8.6,3.3.4.5,1.5.8,3.1.8s.1.1.1.4,0,.4-.1.4c-.8,0-1.6,0-2.6,0-.9,0-1.9,0-2.8,0s-1.9,0-2.9,0c-.9,0-1.8,0-2.6,0s-.2-.1-.2-.4,0-.4.2-.4c1.6,0,2.6-.3,3.1-.8.5-.5.7-1.6.7-3.3ZM365.7,478.5l-.8-.8,16-16,.8.8-16,16ZM379.7,476.6v-13.2c0-1.7-.2-2.8-.7-3.3-.5-.5-1.5-.7-3-.7s-.2-.1-.2-.4,0-.4.2-.4c.7,0,1.6,0,2.5,0s1.9,0,2.9,0,1.9,0,2.8,0c.9,0,1.8,0,2.5,0s.1.1.1.4,0,.4-.1.4c-1.7,0-2.7.3-3.1.8-.4.6-.6,1.7-.6,3.4v13.1c0,1.7.2,2.8.6,3.3.4.5,1.5.8,3.1.8s.1.1.1.4,0,.4-.1.4c-.8,0-1.6,0-2.6,0-.9,0-1.9,0-2.8,0s-2,0-2.9,0c-1,0-1.8,0-2.6,0s-.2-.1-.2-.4,0-.4.2-.4c1.6,0,2.6-.3,3.1-.8.5-.5.7-1.6.7-3.3Z" />
        <path class="cls-2"
          d="M431.1,480.7c0,0,.1.1.1.4s0,.4-.1.4c-.8,0-1.6,0-2.6,0-.9,0-1.9,0-2.8,0s-1.9,0-2.9,0-1.8,0-2.5,0-.2-.1-.2-.4,0-.4.2-.4c1.5,0,2.5-.3,3-.8.5-.5.7-1.6.7-3.3v-13.2c0-1.2,0-2.1-.1-2.6,0-.5-.3-.8-.7-.9-.4-.1-1.1-.2-2-.2h-6.8c-.9,0-1.6,0-2,.2-.4.1-.6.4-.7.9,0,.5-.1,1.4-.1,2.7v13.1c0,1.7.2,2.8.6,3.3.4.5,1.4.8,3,.8s.1.1.1.4,0,.4-.1.4c-.7,0-1.6,0-2.5,0-.9,0-1.8,0-2.7,0s-1.9,0-2.9,0c-.9,0-1.8,0-2.6,0s-.2-.1-.2-.4,0-.4.2-.4c1.6,0,2.6-.3,3.1-.8.5-.5.7-1.6.7-3.3v-13.2c0-1.7-.2-2.8-.7-3.3-.5-.5-1.5-.7-3-.7s-.2-.1-.2-.4,0-.4.2-.4h26.7c0,0,.1.1.1.4s0,.4-.1.4c-1.7,0-2.7.3-3.1.8-.4.6-.6,1.7-.6,3.4v13.1c0,1.7.2,2.8.6,3.3.4.5,1.5.8,3.1.8Z" />
        <path class="cls-2"
          d="M446.5,482.1c-2.3,0-4.3-.6-6.1-1.7-1.7-1.1-3.1-2.7-4-4.6-.9-1.9-1.4-4-1.4-6.2s.4-3.8,1.1-5.3c.7-1.5,1.7-2.7,3-3.7,1.3-1,2.6-1.7,4.1-2.2s2.9-.7,4.3-.7c2.4,0,4.5.6,6.2,1.8,1.7,1.2,3,2.7,3.9,4.5.9,1.8,1.4,3.8,1.4,5.8s-.6,4.7-1.7,6.5c-1.1,1.8-2.7,3.2-4.5,4.2-1.9,1-4,1.5-6.3,1.5ZM448.2,481c2.1,0,3.7-.7,5-2.2,1.2-1.5,1.8-3.9,1.8-7.2s-.4-4.7-1.2-6.6c-.8-1.9-1.9-3.4-3.3-4.5-1.4-1.1-3-1.6-4.8-1.6s-3.7.8-4.9,2.3c-1.2,1.5-1.8,3.7-1.8,6.6s.4,4.6,1.2,6.6c.8,2,1.9,3.6,3.3,4.8,1.4,1.2,3,1.8,4.8,1.8Z" />
        <path class="cls-2"
          d="M474.8,482.1c-2.7,0-4.9-.6-6.5-1.7-1.7-1.2-2.9-2.6-3.7-4.4-.8-1.8-1.2-3.6-1.2-5.5s.4-3.7,1.2-5.3,1.8-2.8,3-3.9c1.3-1.1,2.7-1.9,4.2-2.4s3-.8,4.5-.8,2.2.1,3.3.4c1,.3,1.9.7,2.6,1.3.7.6,1,1.2,1,1.9s-.2,1-.5,1.3c-.4.4-.9.6-1.5.6s-1.2-.2-1.6-.6c-.4-.4-.8-.8-1-1.4-.4-.7-.9-1.3-1.5-1.7-.6-.4-1.5-.6-2.7-.6-2.2,0-4,.9-5.2,2.6-1.2,1.8-1.8,4-1.8,6.8s.3,3.9,1,5.6c.7,1.7,1.8,3.1,3.2,4.2,1.5,1,3.3,1.6,5.7,1.6s2.1-.1,3.1-.4c1-.3,2-.8,2.9-1.5,0,0,.2,0,.3.1.1.2.2.3,0,.4-1.4,1.2-2.8,2.1-4.1,2.7-1.4.6-2.9.9-4.6.9Z" />
        <path class="cls-2"
          d="M492.4,481.4c0,0-.1-.1-.1-.4s0-.4.1-.4c1.6,0,2.7-.3,3.1-.8.5-.5.7-1.6.7-3.3v-13.1c0-1.6-.2-2.7-.5-3.2-.4-.5-1.2-.8-2.4-.8s-2.7.5-3.6,1.4c-.9.9-1.4,2.7-1.6,5.5,0,0-.1.1-.4.1s-.4,0-.4-.1v-2.5c0-1.1,0-2.3,0-3.5,0-1.2,0-2.1,0-2.9s.1-.3.4-.3.4,0,.4.3c0,.6.9.9,2.7,1,1.8.1,4.2.2,7.1.2s3.6,0,5.1,0c1.5,0,2.6-.1,3.5-.3s1.2-.4,1.2-.8.1-.3.4-.3.4,0,.4.3v2.9c0,1.2,0,2.3,0,3.5,0,1.1,0,2,0,2.5s-.1.1-.4.1-.4,0-.4-.1c-.2-2.7-.7-4.5-1.7-5.5-1-.9-2.2-1.4-3.6-1.4s-2,.3-2.3.8c-.3.5-.5,1.6-.5,3.2v13.1c0,1.7.2,2.8.6,3.3.4.5,1.5.8,3.1.8s.2.1.2.4,0,.4-.2.4c-.7,0-1.6,0-2.5,0-.9,0-1.9,0-2.9,0s-1.9,0-2.9,0c-1,0-1.8,0-2.6,0Z" />
        <path class="cls-2"
          d="M535.8,458.6c.1,0,.2.1.2.4s0,.4-.2.4c-1,0-1.8.3-2.5,1-.7.7-1.4,1.8-2,3.5l-7.2,19.2c-1.4,3.8-2.8,6.8-4.1,8.9-1.3,2.2-2.6,3.7-4,4.6-1.4.9-2.9,1.4-4.6,1.4s-1.5-.2-2.1-.6c-.6-.4-.9-1-.9-1.7s.2-1,.6-1.3c.4-.3.8-.4,1.3-.4.8,0,1.4.1,1.8.4.4.2.8.5,1.2.7.4.2.9.4,1.5.4.9,0,1.9-.4,2.7-1.3.9-.9,1.8-2.4,2.9-4.5,1-2.1,2.2-5,3.6-8.7v1.7c0,0-9.4-18.9-9.4-18.9-.9-1.7-1.5-2.9-2-3.4-.5-.5-1.1-.8-1.9-.8s-.1-.1-.1-.4,0-.4.1-.4c.6,0,1.3,0,2,0,.7,0,1.3,0,2,0,1.3,0,2.4,0,3.4,0,1,0,1.9,0,2.7,0s.1.1.1.4,0,.4-.1.4c-1.3,0-2.2.2-2.9.5-.6.3-.7.9-.3,1.8l8.1,16.6-1.4,2.4,5.8-16.6c.6-1.8.6-3,0-3.7-.6-.7-2-1-4-1s-.1-.1-.1-.4,0-.4.1-.4c.9,0,1.8,0,2.7,0,.8,0,1.9,0,3.3,0s1.6,0,2.1,0c.5,0,1.2,0,1.9,0Z" />
        <path class="cls-2"
          d="M564.6,480.7c0,0,.1.1.1.4s0,.4-.1.4c-.8,0-1.6,0-2.6,0-.9,0-1.9,0-2.8,0s-1.9,0-2.9,0-1.8,0-2.5,0-.2-.1-.2-.4,0-.4.2-.4c1.5,0,2.5-.3,3-.8.5-.5.7-1.6.7-3.3v-13.2c0-1.2,0-2.1-.1-2.6,0-.5-.3-.8-.7-.9-.4-.1-1.1-.2-2-.2h-6.8c-.9,0-1.6,0-2,.2-.4.1-.6.4-.7.9,0,.5-.1,1.4-.1,2.7v13.1c0,1.7.2,2.8.6,3.3.4.5,1.4.8,3,.8s.1.1.1.4,0,.4-.1.4c-.7,0-1.6,0-2.5,0-.9,0-1.8,0-2.7,0s-1.9,0-2.9,0c-.9,0-1.8,0-2.6,0s-.2-.1-.2-.4,0-.4.2-.4c1.6,0,2.6-.3,3.1-.8.5-.5.7-1.6.7-3.3v-13.2c0-1.7-.2-2.8-.7-3.3-.5-.5-1.5-.7-3-.7s-.2-.1-.2-.4,0-.4.2-.4h26.7c0,0,.1.1.1.4s0,.4-.1.4c-1.7,0-2.7.3-3.1.8-.4.6-.6,1.7-.6,3.4v13.1c0,1.7.2,2.8.6,3.3.4.5,1.5.8,3.1.8Z" />
        <path class="cls-2"
          d="M569.8,481.9c-1.7,0-2.6-.6-2.6-1.9s.2-1.1.6-1.5c.4-.4.8-.5,1.3-.5s.5,0,.8,0,.6,0,.9,0c1.1,0,2-.5,2.8-1.5.8-1,1.4-2.3,1.9-4,.5-1.6.9-3.3,1.1-5.1.2-1.8.4-3.5.4-5.1s-.3-2.1-.9-2.4c-.6-.3-1.7-.6-3.5-.7-.1,0-.2-.1-.2-.3s0-.3.2-.3h19.6c0,0,.1.1.1.4s0,.4-.1.4c-1,0-1.8.1-2.3.3-.5.2-.9.5-1.1,1.1-.2.6-.3,1.5-.3,2.8v13.1c0,1.2,0,2.1.3,2.7.2.6.6.9,1.1,1.1.6.1,1.3.2,2.4.3,0,0,.1.1.1.4s0,.4-.1.4c-.8,0-1.6,0-2.5,0-.9,0-1.8,0-2.8,0s-2,0-3,0c-1,0-1.8,0-2.6,0s-.2-.1-.2-.4,0-.4.2-.4c1.1,0,1.9-.2,2.4-.3.5-.1.9-.5,1.1-1.1.2-.6.3-1.5.3-2.7v-13.2c0-1.2,0-2.1-.1-2.6,0-.5-.3-.8-.7-.9-.4-.1-1.1-.2-2-.2h-.4c-.9,0-1.6,0-2.1.3-.5.2-.8.5-.9,1-.2.5-.3,1.3-.5,2.3-.2,1.5-.4,3.1-.6,4.8-.2,1.7-.6,3.3-.9,5-.4,1.6-.9,3.1-1.5,4.4-.6,1.3-1.3,2.4-2.3,3.2-.9.8-2,1.2-3.3,1.2Z" />
        <path class="cls-2"
          d="M607.2,482.1c-2.4,0-4.5-.5-6.1-1.6-1.7-1.1-2.9-2.5-3.7-4.2-.8-1.7-1.2-3.6-1.2-5.5s.6-4.6,1.7-6.5c1.1-1.9,2.6-3.4,4.5-4.5,1.9-1.1,4.1-1.7,6.5-1.7s3.8.5,5,1.6c1.2,1,1.7,2.5,1.7,4.3s0,.8-.1,1c0,.2-.3.4-.6.4h-3.4c.2-1.9-.2-3.4-1-4.5-.8-1-2-1.6-3.6-1.6-2.2,0-3.9.8-5,2.5-1.2,1.7-1.7,3.9-1.7,6.7s.4,4.2,1.1,6c.7,1.7,1.8,3.1,3.2,4.1,1.4,1,3.1,1.5,5,1.5s2.1-.2,3.1-.5c1.1-.3,2.1-.8,3-1.5,0,0,.2,0,.3.1.1.2.2.3,0,.4-1.4,1.2-2.8,2.1-4.2,2.6-1.4.5-2.9.8-4.4.8ZM598.9,465.4v-.8c0,0,13.4-.3,13.4-.3v.9h-13.4Z" />
        <path class="cls-2"
          d="M623.7,476.6v-13.2c0-1.7-.2-2.8-.7-3.3-.5-.5-1.5-.7-3-.7s-.2-.1-.2-.4,0-.4.2-.4c.7,0,1.6,0,2.5,0,.9,0,1.9,0,2.9,0s1.9,0,2.8,0,1.8,0,2.5,0,.1.1.1.4,0,.4-.1.4c-1.7,0-2.7.3-3.1.8-.4.6-.6,1.7-.6,3.4v13.1c0,1.7.2,2.8.6,3.3.4.5,1.5.8,3.1.8s.1.1.1.4,0,.4-.1.4c-.8,0-1.6,0-2.6,0-.9,0-1.9,0-2.8,0s-1.9,0-2.9,0c-.9,0-1.8,0-2.6,0s-.2-.1-.2-.4,0-.4.2-.4c1.6,0,2.6-.3,3.1-.8.5-.5.7-1.6.7-3.3ZM625.2,470.6v-1.2h15.9v1.2h-15.9ZM639.6,476.6v-13.2c0-1.7-.2-2.8-.7-3.3-.5-.5-1.5-.7-3-.7s-.2-.1-.2-.4,0-.4.2-.4c.7,0,1.6,0,2.5,0s1.9,0,2.9,0,1.9,0,2.8,0c.9,0,1.8,0,2.5,0s.1.1.1.4,0,.4-.1.4c-1.7,0-2.7.3-3.1.8-.4.6-.6,1.7-.6,3.4v13.1c0,1.7.2,2.8.6,3.3.4.5,1.5.8,3.1.8s.1.1.1.4,0,.4-.1.4c-.8,0-1.6,0-2.6,0-.9,0-1.9,0-2.8,0s-2,0-2.9,0c-1,0-1.8,0-2.6,0s-.2-.1-.2-.4,0-.4.2-.4c1.6,0,2.6-.3,3.1-.8.5-.5.7-1.6.7-3.3Z" />
        <path class="cls-2"
          d="M654.1,476.6v-13.2c0-1.7-.2-2.8-.7-3.3-.5-.5-1.5-.7-3-.7s-.2-.1-.2-.4,0-.4.2-.4c.7,0,1.6,0,2.5,0,.9,0,1.9,0,2.9,0s1.9,0,2.8,0,1.8,0,2.5,0,.1.1.1.4,0,.4-.1.4c-1.7,0-2.7.3-3.1.8-.4.6-.6,1.7-.6,3.4v13.1c0,1.7.2,2.8.6,3.3.4.5,1.5.8,3.1.8s.1.1.1.4,0,.4-.1.4c-.8,0-1.6,0-2.6,0-.9,0-1.9,0-2.8,0s-1.9,0-2.9,0c-.9,0-1.8,0-2.6,0s-.2-.1-.2-.4,0-.4.2-.4c1.6,0,2.6-.3,3.1-.8.5-.5.7-1.6.7-3.3ZM656,478.5l-.8-.8,16-16,.8.8-16,16ZM670,476.6v-13.2c0-1.7-.2-2.8-.7-3.3-.5-.5-1.5-.7-3-.7s-.2-.1-.2-.4,0-.4.2-.4c.7,0,1.6,0,2.5,0s1.9,0,2.9,0,1.9,0,2.8,0c.9,0,1.8,0,2.5,0s.1.1.1.4,0,.4-.1.4c-1.7,0-2.7.3-3.1.8-.4.6-.6,1.7-.6,3.4v13.1c0,1.7.2,2.8.6,3.3.4.5,1.5.8,3.1.8s.1.1.1.4,0,.4-.1.4c-.8,0-1.6,0-2.6,0-.9,0-1.9,0-2.8,0s-2,0-2.9,0c-1,0-1.8,0-2.6,0s-.2-.1-.2-.4,0-.4.2-.4c1.6,0,2.6-.3,3.1-.8.5-.5.7-1.6.7-3.3Z" />
        <path class="cls-2"
          d="M692.1,482.1c-2.4,0-4.5-.5-6.1-1.6-1.7-1.1-2.9-2.5-3.7-4.2-.8-1.7-1.2-3.6-1.2-5.5s.6-4.6,1.7-6.5c1.1-1.9,2.6-3.4,4.5-4.5,1.9-1.1,4.1-1.7,6.5-1.7s3.8.5,5,1.6c1.2,1,1.7,2.5,1.7,4.3s0,.8-.1,1c0,.2-.3.4-.6.4h-3.4c.2-1.9-.2-3.4-1-4.5-.8-1-2-1.6-3.6-1.6-2.2,0-3.9.8-5,2.5-1.2,1.7-1.7,3.9-1.7,6.7s.4,4.2,1.1,6c.7,1.7,1.8,3.1,3.2,4.1,1.4,1,3.1,1.5,5,1.5s2.1-.2,3.1-.5c1.1-.3,2.1-.8,3-1.5,0,0,.2,0,.3.1.1.2.2.3,0,.4-1.4,1.2-2.8,2.1-4.2,2.6-1.4.5-2.9.8-4.4.8ZM683.9,465.4v-.8c0,0,13.4-.3,13.4-.3v.9h-13.4Z" />
        <path class="cls-2"
          d="M724.2,458.7c1,0,2.1,0,3.2,0,1.1,0,2.2,0,3.3,0,2.3,0,4,.4,5.3,1.1,1.2.7,1.9,1.9,1.9,3.4,0,2.1-1.6,4.2-4.8,6.4l-.8-.4c.6-.6,1-1.2,1.4-1.9.3-.7.5-1.6.5-2.7,0-1.8-.4-3-1.3-3.8-.8-.8-2.1-1.2-3.7-1.2s-2.2.2-2.7.7c-.5.5-.7,1.6-.7,3.5v13.1c0,1.4.3,2.4.9,3,.6.6,1.9.9,3.8.9s3.6-.4,4.6-1.3c1-.9,1.4-2.1,1.4-3.7s-.5-3.1-1.5-4.2c-1-1.1-2.7-1.6-5.1-1.6h-5.4v-.9c0,0,7.5,0,7.5,0,5.6,0,8.4,1.8,8.4,5.4s-.8,3.9-2.5,5.3c-1.7,1.4-3.8,2.1-6.3,2.1s-2.1,0-3.6-.1c-1.4,0-2.7-.1-3.8-.1s-1.9,0-2.9,0c-.9,0-1.8,0-2.6,0s-.2-.1-.2-.4,0-.4.2-.4c1.6,0,2.6-.3,3.1-.8.5-.5.7-1.6.7-3.3v-13.2c0-1.7-.2-2.8-.7-3.3-.5-.5-1.5-.7-3-.7s-.2-.1-.2-.4,0-.4.2-.4c.7,0,1.6,0,2.5,0,.9,0,1.9,0,2.9,0Z" />
        <path class="cls-2"
          d="M781.8,458.6c.1,0,.2.1.2.4s0,.4-.2.4c-1,0-1.8.3-2.5,1-.7.7-1.4,1.8-2,3.5l-7.2,19.2c-1.4,3.8-2.8,6.8-4.1,8.9-1.3,2.2-2.6,3.7-4,4.6-1.4.9-2.9,1.4-4.6,1.4s-1.5-.2-2.1-.6c-.6-.4-.9-1-.9-1.7s.2-1,.6-1.3c.4-.3.8-.4,1.3-.4.8,0,1.4.1,1.8.4.4.2.8.5,1.2.7.4.2.9.4,1.5.4.9,0,1.9-.4,2.7-1.3.9-.9,1.8-2.4,2.9-4.5s2.2-5,3.6-8.7v1.7c0,0-9.4-18.9-9.4-18.9-.9-1.7-1.5-2.9-2-3.4s-1.1-.8-1.9-.8-.1-.1-.1-.4,0-.4.1-.4c.6,0,1.3,0,2,0,.7,0,1.3,0,2,0,1.3,0,2.4,0,3.4,0s1.9,0,2.7,0,.1.1.1.4,0,.4-.1.4c-1.3,0-2.2.2-2.9.5-.6.3-.7.9-.3,1.8l8.1,16.6-1.4,2.4,5.8-16.6c.6-1.8.6-3,0-3.7-.6-.7-2-1-4-1s-.1-.1-.1-.4,0-.4.1-.4c.9,0,1.8,0,2.7,0s1.9,0,3.3,0,1.6,0,2.1,0,1.2,0,1.9,0Z" />
        <path class="cls-2"
          d="M787.7,476.6v-13.2c0-1.7-.2-2.8-.7-3.3s-1.5-.7-3-.7-.2-.1-.2-.4,0-.4.2-.4c.7,0,1.6,0,2.5,0,.9,0,1.9,0,2.9,0s1.9,0,2.8,0,1.8,0,2.5,0,.1.1.1.4,0,.4-.1.4c-1.7,0-2.7.3-3.1.8-.4.6-.6,1.7-.6,3.4v13.1c0,1.7.2,2.8.6,3.3.4.5,1.5.8,3.1.8s.1.1.1.4,0,.4-.1.4c-.8,0-1.6,0-2.6,0-.9,0-1.9,0-2.8,0s-1.9,0-2.9,0c-.9,0-1.8,0-2.6,0s-.2-.1-.2-.4,0-.4.2-.4c1.6,0,2.6-.3,3.1-.8.5-.5.7-1.6.7-3.3ZM789.2,470.6v-1.2h15.9v1.2h-15.9ZM803.6,476.6v-13.2c0-1.7-.2-2.8-.7-3.3s-1.5-.7-3-.7-.2-.1-.2-.4,0-.4.2-.4c.7,0,1.6,0,2.5,0,.9,0,1.9,0,2.9,0s1.9,0,2.8,0,1.8,0,2.5,0,.1.1.1.4,0,.4-.1.4c-1.7,0-2.7.3-3.1.8-.4.6-.6,1.7-.6,3.4v13.1c0,1.7.2,2.8.6,3.3.4.5,1.5.8,3.1.8s.1.1.1.4,0,.4-.1.4c-.8,0-1.6,0-2.6,0-.9,0-1.9,0-2.8,0s-2,0-2.9,0-1.8,0-2.6,0-.2-.1-.2-.4,0-.4.2-.4c1.6,0,2.6-.3,3.1-.8.5-.5.7-1.6.7-3.3Z" />
        <path class="cls-2"
          d="M818.2,476.6v-13.2c0-1.7-.2-2.8-.7-3.3s-1.5-.7-3-.7-.2-.1-.2-.4,0-.4.2-.4c.7,0,1.6,0,2.5,0,.9,0,1.9,0,2.9,0s1.9,0,2.8,0,1.8,0,2.5,0,.1.1.1.4,0,.4-.1.4c-1.7,0-2.7.3-3.1.8-.4.6-.6,1.7-.6,3.4v13.1c0,1.7.2,2.8.6,3.3.4.5,1.5.8,3.1.8s.1.1.1.4,0,.4-.1.4c-.8,0-1.6,0-2.6,0-.9,0-1.9,0-2.8,0s-1.9,0-2.9,0c-.9,0-1.8,0-2.6,0s-.2-.1-.2-.4,0-.4.2-.4c1.6,0,2.6-.3,3.1-.8.5-.5.7-1.6.7-3.3ZM820,478.5l-.8-.8,16-16,.8.8-16,16ZM834,476.6v-13.2c0-1.7-.2-2.8-.7-3.3s-1.5-.7-3-.7-.2-.1-.2-.4,0-.4.2-.4c.7,0,1.6,0,2.5,0,.9,0,1.9,0,2.9,0s1.9,0,2.8,0,1.8,0,2.5,0,.1.1.1.4,0,.4-.1.4c-1.7,0-2.7.3-3.1.8-.4.6-.6,1.7-.6,3.4v13.1c0,1.7.2,2.8.6,3.3.4.5,1.5.8,3.1.8s.1.1.1.4,0,.4-.1.4c-.8,0-1.6,0-2.6,0-.9,0-1.9,0-2.8,0s-2,0-2.9,0-1.8,0-2.6,0-.2-.1-.2-.4,0-.4.2-.4c1.6,0,2.6-.3,3.1-.8.5-.5.7-1.6.7-3.3Z" />
        <path class="cls-2"
          d="M850.3,458.7c1,0,2.1,0,3.2,0,1.1,0,2.2,0,3.3,0,2.3,0,4,.4,5.3,1.1,1.2.7,1.9,1.9,1.9,3.4,0,2.1-1.6,4.2-4.8,6.4l-.8-.4c.6-.6,1-1.2,1.4-1.9.3-.7.5-1.6.5-2.7,0-1.8-.4-3-1.3-3.8-.8-.8-2.1-1.2-3.7-1.2s-2.2.2-2.7.7c-.5.5-.7,1.6-.7,3.5v13.1c0,1.4.3,2.4.9,3,.6.6,1.9.9,3.8.9s3.6-.4,4.6-1.3c1-.9,1.4-2.1,1.4-3.7s-.5-3.1-1.5-4.2c-1-1.1-2.7-1.6-5.1-1.6h-5.4v-.9c0,0,7.5,0,7.5,0,5.6,0,8.4,1.8,8.4,5.4s-.8,3.9-2.5,5.3c-1.7,1.4-3.8,2.1-6.3,2.1s-2.1,0-3.6-.1c-1.4,0-2.7-.1-3.8-.1s-1.9,0-2.9,0c-.9,0-1.8,0-2.6,0s-.2-.1-.2-.4,0-.4.2-.4c1.6,0,2.6-.3,3.1-.8.5-.5.7-1.6.7-3.3v-13.2c0-1.7-.2-2.8-.7-3.3s-1.5-.7-3-.7-.2-.1-.2-.4,0-.4.2-.4c.7,0,1.6,0,2.5,0,.9,0,1.9,0,2.9,0Z" />
        <path class="cls-2"
          d="M881.9,482.1c-2.4,0-4.5-.5-6.1-1.6-1.7-1.1-2.9-2.5-3.7-4.2-.8-1.7-1.2-3.6-1.2-5.5s.6-4.6,1.7-6.5,2.6-3.4,4.5-4.5c1.9-1.1,4.1-1.7,6.5-1.7s3.8.5,5,1.6c1.2,1,1.7,2.5,1.7,4.3s0,.8-.1,1c0,.2-.3.4-.6.4h-3.4c.2-1.9-.2-3.4-1-4.5-.8-1-2-1.6-3.6-1.6-2.2,0-3.9.8-5,2.5-1.2,1.7-1.7,3.9-1.7,6.7s.4,4.2,1.1,6c.7,1.7,1.8,3.1,3.2,4.1,1.4,1,3.1,1.5,5,1.5s2.1-.2,3.1-.5c1.1-.3,2.1-.8,3-1.5,0,0,.2,0,.3.1.1.2.2.3,0,.4-1.4,1.2-2.8,2.1-4.2,2.6-1.4.5-2.9.8-4.4.8ZM873.7,465.4v-.8c0,0,13.4-.3,13.4-.3v.9h-13.4Z" />
        <path class="cls-2"
          d="M893.8,497.6c-.1,0-.2-.1-.2-.4s0-.4.2-.4c1.8,0,3-.3,3.5-.8.5-.5.8-1.6.8-3.3v-29.4c0-1.7-.3-2.7-1-3.3s-2-.8-4-.8-.2-.1-.2-.4,0-.4.2-.4h7.1c.4,0,.7,0,.9.3s.2.6.2,1.2v32.7c0,1.1.1,1.9.4,2.5.3.6.9,1,1.7,1.2.8.2,2.1.3,3.7.3s.2.1.2.4,0,.4-.2.4c-1.1,0-2.2,0-3.5,0-1.3,0-2.6,0-4,0s-2.2,0-3.2,0c-1,0-2,0-2.7,0ZM907.7,482.1c-1.5,0-2.9-.2-4-.5-1.1-.4-2.4-1-3.8-2l.9-3.2c1,1.3,2.2,2.4,3.5,3.2,1.3.9,3,1.3,5.2,1.3s3.8-.9,5.1-2.7c1.4-1.8,2.1-4.4,2.1-7.7s-.8-6-2.3-7.8c-1.5-1.8-3.4-2.7-5.5-2.7s-3.3.5-4.6,1.4c-1.3,1-2.6,2.1-3.8,3.5l-.5-.5c2-2.3,3.9-4,5.8-5.1,1.8-1.1,3.7-1.6,5.6-1.6s3.1.4,4.5,1.3c1.4.8,2.5,2.1,3.3,3.7.8,1.6,1.3,3.6,1.3,5.9s-.4,4.4-1.2,6.1c-.8,1.7-1.9,3.1-3.2,4.2-1.3,1.1-2.7,1.9-4.1,2.4-1.5.5-2.8.8-4.1.8Z" />
        <path class="cls-2"
          d="M936.2,482.1c-2.7,0-4.9-.6-6.5-1.7-1.7-1.2-2.9-2.6-3.7-4.4-.8-1.8-1.2-3.6-1.2-5.5s.4-3.7,1.2-5.3,1.8-2.8,3-3.9c1.3-1.1,2.7-1.9,4.2-2.4s3-.8,4.5-.8,2.2.1,3.3.4c1,.3,1.9.7,2.6,1.3.7.6,1,1.2,1,1.9s-.2,1-.5,1.3c-.4.4-.9.6-1.5.6s-1.2-.2-1.6-.6c-.4-.4-.8-.8-1-1.4-.4-.7-.9-1.3-1.5-1.7-.6-.4-1.5-.6-2.7-.6-2.2,0-4,.9-5.2,2.6-1.2,1.8-1.8,4-1.8,6.8s.3,3.9,1,5.6c.7,1.7,1.8,3.1,3.2,4.2,1.5,1,3.3,1.6,5.7,1.6s2.1-.1,3.1-.4,2-.8,2.9-1.5c0,0,.2,0,.3.1.1.2.2.3,0,.4-1.4,1.2-2.8,2.1-4.1,2.7-1.4.6-2.9.9-4.6.9Z" />
        <path class="cls-2"
          d="M952.5,476.6v-13.2c0-1.7-.2-2.8-.7-3.3s-1.5-.7-3-.7-.2-.1-.2-.4,0-.4.2-.4c.7,0,1.6,0,2.5,0,.9,0,1.9,0,2.9,0s1.9,0,2.8,0,1.8,0,2.5,0,.1.1.1.4,0,.4-.1.4c-1.7,0-2.7.3-3.1.8-.4.6-.6,1.7-.6,3.4v13.1c0,1.7.2,2.8.6,3.3.4.5,1.5.8,3.1.8s.1.1.1.4,0,.4-.1.4c-.8,0-1.6,0-2.6,0-.9,0-1.9,0-2.8,0s-1.9,0-2.9,0c-.9,0-1.8,0-2.6,0s-.2-.1-.2-.4,0-.4.2-.4c1.6,0,2.6-.3,3.1-.8.5-.5.7-1.6.7-3.3ZM954.3,478.5l-.8-.8,16-16,.8.8-16,16ZM968.4,476.6v-13.2c0-1.7-.2-2.8-.7-3.3s-1.5-.7-3-.7-.2-.1-.2-.4,0-.4.2-.4c.7,0,1.6,0,2.5,0,.9,0,1.9,0,2.9,0s1.9,0,2.8,0,1.8,0,2.5,0,.1.1.1.4,0,.4-.1.4c-1.7,0-2.7.3-3.1.8-.4.6-.6,1.7-.6,3.4v13.1c0,1.7.2,2.8.6,3.3.4.5,1.5.8,3.1.8s.1.1.1.4,0,.4-.1.4c-.8,0-1.6,0-2.6,0-.9,0-1.9,0-2.8,0s-2,0-2.9,0-1.8,0-2.6,0-.2-.1-.2-.4,0-.4.2-.4c1.6,0,2.6-.3,3.1-.8.5-.5.7-1.6.7-3.3Z" />
        <path class="cls-2"
          d="M984.3,481.4c0,0-.1-.1-.1-.4s0-.4.1-.4c1.6,0,2.7-.3,3.1-.8.5-.5.7-1.6.7-3.3v-13.1c0-1.6-.2-2.7-.5-3.2-.4-.5-1.2-.8-2.4-.8s-2.7.5-3.6,1.4c-.9.9-1.4,2.7-1.6,5.5,0,0-.1.1-.4.1s-.4,0-.4-.1v-2.5c0-1.1,0-2.3,0-3.5,0-1.2,0-2.1,0-2.9s.1-.3.4-.3.4,0,.4.3c0,.6.9.9,2.7,1,1.8.1,4.2.2,7.1.2s3.6,0,5.1,0c1.5,0,2.6-.1,3.5-.3.8-.2,1.2-.4,1.2-.8s.1-.3.4-.3.4,0,.4.3v2.9c0,1.2,0,2.3,0,3.5,0,1.1,0,2,0,2.5s-.1.1-.4.1-.4,0-.4-.1c-.2-2.7-.7-4.5-1.7-5.5-1-.9-2.2-1.4-3.6-1.4s-2,.3-2.3.8c-.3.5-.5,1.6-.5,3.2v13.1c0,1.7.2,2.8.6,3.3.4.5,1.5.8,3.1.8s.2.1.2.4,0,.4-.2.4c-.7,0-1.6,0-2.5,0s-1.9,0-2.9,0-1.9,0-2.9,0c-1,0-1.8,0-2.6,0Z" />
        <path class="cls-2"
          d="M1015.4,482.1c-2.4,0-4.5-.5-6.1-1.6-1.7-1.1-2.9-2.5-3.7-4.2-.8-1.7-1.2-3.6-1.2-5.5s.6-4.6,1.7-6.5,2.6-3.4,4.5-4.5c1.9-1.1,4.1-1.7,6.5-1.7s3.8.5,5,1.6c1.2,1,1.7,2.5,1.7,4.3s0,.8-.1,1c0,.2-.3.4-.6.4h-3.4c.2-1.9-.2-3.4-1-4.5-.8-1-2-1.6-3.6-1.6-2.2,0-3.9.8-5,2.5-1.2,1.7-1.7,3.9-1.7,6.7s.4,4.2,1.1,6c.7,1.7,1.8,3.1,3.2,4.1,1.4,1,3.1,1.5,5,1.5s2.1-.2,3.1-.5c1.1-.3,2.1-.8,3-1.5,0,0,.2,0,.3.1.1.2.2.3,0,.4-1.4,1.2-2.8,2.1-4.2,2.6-1.4.5-2.9.8-4.4.8ZM1007.2,465.4v-.8c0,0,13.4-.3,13.4-.3v.9h-13.4Z" />
        <path class="cls-2"
          d="M1033.3,481.4c0,0-.1-.1-.1-.4s0-.4.1-.4c1.6,0,2.7-.3,3.1-.8.5-.5.7-1.6.7-3.3v-13.1c0-1.6-.2-2.7-.5-3.2-.4-.5-1.2-.8-2.4-.8s-2.7.5-3.6,1.4c-.9.9-1.4,2.7-1.6,5.5,0,0-.1.1-.4.1s-.4,0-.4-.1v-2.5c0-1.1,0-2.3,0-3.5,0-1.2,0-2.1,0-2.9s.1-.3.4-.3.4,0,.4.3c0,.6.9.9,2.7,1,1.8.1,4.2.2,7.1.2s3.6,0,5.1,0c1.5,0,2.6-.1,3.5-.3.8-.2,1.2-.4,1.2-.8s.1-.3.4-.3.4,0,.4.3v2.9c0,1.2,0,2.3,0,3.5,0,1.1,0,2,0,2.5s-.1.1-.4.1-.4,0-.4-.1c-.2-2.7-.7-4.5-1.7-5.5-1-.9-2.2-1.4-3.6-1.4s-2,.3-2.3.8c-.3.5-.5,1.6-.5,3.2v13.1c0,1.7.2,2.8.6,3.3.4.5,1.5.8,3.1.8s.2.1.2.4,0,.4-.2.4c-.7,0-1.6,0-2.5,0s-1.9,0-2.9,0-1.9,0-2.9,0c-1,0-1.8,0-2.6,0Z" />
      </g>
    </g>
  </g>
</svg>