<?xml version="1.0" encoding="UTF-8"?>
<svg xmlns="http://www.w3.org/2000/svg" version="1.1" viewBox="0 0 1080 1080">
  <defs>
    <style>
      .cls-1 {
      fill: #fff;
      }

      .cls-2 {
      fill: #0b314c;
      }
    </style>
  </defs>
  <g>
    <g id="_Слой_1" data-name="Слой_1">
      <rect class="cls-2" width="1080" height="1080" />
      <g>
        <g>
          <path class="cls-1"
            d="M325.3,471.1c10,9.6,15,21.5,15,35.8s-2.7,20.9-8,29.8c-5.4,8.9-12.7,15.9-22.1,20.9-9.4,5.1-19.8,7.6-31.3,7.6s-14.2-.3-22.2-.9c-2.9-.2-6.3-.4-10.2-.6-3.9-.2-8.2-.3-13-.3l-21,.3c-3.7.2-9,.3-15.8.3s-.6-.6-.6-1.9.2-1.9.6-1.9c7.8,0,13.6-.6,17.3-1.7,3.7-1.1,6.3-3.1,7.7-6,1.4-2.9,2.2-7.4,2.2-13.6v-143.5c0-6.2-.7-10.7-2-13.6-1.3-2.9-3.9-4.9-7.6-6-3.7-1.1-9.4-1.7-17-1.7s-.9-.6-.9-1.9.3-1.9.9-1.9l15.1.3c8.6.4,15.6.6,21,.6s7.2-.1,10.3-.3c3.2-.2,5.9-.4,8.2-.6,6.4-.6,12.4-.9,17.9-.9,17.3,0,30.3,3.8,38.9,11.3,8.6,7.5,13,17.4,13,29.6s-3.2,18.8-9.6,26.5c-6.4,7.8-15.1,13.8-26.3,18.1,16.3,1.2,29.4,6.7,39.4,16.3ZM251.2,375.2c-2.6.8-4.5,2.8-5.7,5.9-1.2,3.1-1.9,8.1-1.9,14.9v58.9l13.9.3c15,0,26.1-3.9,33.4-11.6,7.2-7.8,10.8-18,10.8-30.8s-3.1-20.9-9.4-28.1c-6.3-7.1-16-10.7-29.2-10.7s-9.3.4-11.9,1.2ZM307.7,548c7.3-7.8,11-18.9,11-33.3s-4.6-28.4-13.7-38.1c-9.2-9.7-21.8-14.7-37.8-14.9-6.6-.2-14.4,0-23.5.6v76.6c0,5.4.8,9.5,2.3,12.4,1.5,2.9,4.5,5,9,6.4,4.4,1.3,10.9,2,19.3,2,15,0,26.2-3.9,33.5-11.6Z" />
          <path class="cls-1"
            d="M412.4,552.8c1.1,2.9,3.2,4.9,6.3,5.9,3.1,1,8.1,1.5,15.1,1.5s.6.6.6,1.9-.2,1.9-.6,1.9c-5.8,0-10.3-.1-13.6-.3l-19.5-.3-18.2.3c-3.5.2-8.2.3-14.2.3s-.6-.6-.6-1.9.2-1.9.6-1.9c7,0,12-.5,15.1-1.5,3.1-1,5.2-3,6.3-5.9,1.1-2.9,1.7-7.5,1.7-14v-94.9c0-6.2-.6-10.7-1.7-13.6-1.1-2.9-3.3-4.9-6.5-6-3.2-1.1-8.2-1.7-15-1.7s-.6-.6-.6-1.9.2-1.9.6-1.9l14.2.3c7.4.4,13.5.6,18.2.6s11.9-.2,19.8-.6l13.3-.3c.4,0,.6.6.6,1.9s-.2,1.9-.6,1.9c-6.6,0-11.5.6-14.8,1.9-3.3,1.2-5.5,3.4-6.6,6.4-1.1,3-1.7,7.6-1.7,13.8v94.2c0,6.4.6,11.1,1.7,14Z" />
          <path class="cls-1"
            d="M498.8,537.6c0,6,.6,10.4,1.7,13.3,1.1,2.9,3.3,5,6.5,6.2,3.2,1.2,8,1.9,14.4,1.9h20.4c10.9,0,19.6-3.4,26.1-10.2,6.5-6.8,10.9-16.2,13.1-28.2,0-.4.4-.6,1.2-.6s1.2.1,1.7.3c.5.2.8.5.8.9-1.4,9.5-2.2,22.2-2.2,38.1s-.4,2.8-1.1,3.6c-.7.7-1.9,1.1-3.6,1.1h-120.8c-.4,0-.6-.6-.6-1.9s.2-1.9.6-1.9c6.8,0,11.7-.5,14.8-1.5,3.1-1,5.1-3,6.2-6,1-3,1.5-7.6,1.5-13.8v-94.9c0-6.2-.6-10.7-1.7-13.6-1.1-2.9-3.2-4.9-6.3-6-3.1-1.1-7.9-1.7-14.5-1.7s-.6-.6-.6-1.9.2-1.9.6-1.9l13.9.3c7.8.4,13.9.6,18.2.6s11.6-.2,19.5-.6l13-.3c.6,0,.9.6.9,1.9s-.3,1.9-.9,1.9c-6.8,0-11.7.6-14.8,1.7-3.1,1.1-5.2,3.2-6.3,6.2-1.1,3-1.7,7.6-1.7,13.8v93.3Z" />
          <path class="cls-1"
            d="M645.9,552.8c1.1,2.9,3.2,4.9,6.3,5.9,3.1,1,8.1,1.5,15.1,1.5s.6.6.6,1.9-.2,1.9-.6,1.9c-5.8,0-10.3-.1-13.6-.3l-19.5-.3-18.2.3c-3.5.2-8.2.3-14.2.3s-.6-.6-.6-1.9.2-1.9.6-1.9c7,0,12-.5,15.1-1.5,3.1-1,5.2-3,6.3-5.9,1.1-2.9,1.7-7.5,1.7-14v-94.9c0-6.2-.6-10.7-1.7-13.6-1.1-2.9-3.3-4.9-6.5-6-3.2-1.1-8.2-1.7-15-1.7s-.6-.6-.6-1.9.2-1.9.6-1.9l14.2.3c7.4.4,13.5.6,18.2.6s11.9-.2,19.8-.6l13.3-.3c.4,0,.6.6.6,1.9s-.2,1.9-.6,1.9c-6.6,0-11.5.6-14.8,1.9-3.3,1.2-5.5,3.4-6.6,6.4-1.1,3-1.7,7.6-1.7,13.8v94.2c0,6.4.6,11.1,1.7,14Z" />
          <path class="cls-1"
            d="M883.9,562.1c0,1.2-.2,1.9-.6,1.9-5.8,0-10.3-.1-13.6-.3l-18.2-.3-21,.3c-3.5.2-8.3.3-14.5.3s-.6-.6-.6-1.9.2-1.9.6-1.9c7.6,0,13.3-.6,17-1.7,3.7-1.1,6.2-3.1,7.4-6,1.2-2.9,1.6-7.4,1.2-13.6l-3.7-104.5-53.1,127.4c-.4.8-1.1,1.2-2.2,1.2s-2.1-.4-2.5-1.2l-59-117.2-.6-1.2-2.8,86.8c-.2,11,1.2,18.7,4.3,23.2,3.1,4.5,8.3,6.8,15.8,6.8s.9.6.9,1.9-.3,1.9-.9,1.9c-4.3,0-7.6-.1-9.9-.3l-13.6-.3-13,.3c-2.7.2-6.4.3-11.1.3s-.6-.6-.6-1.9.2-1.9.6-1.9c7.6,0,13-2.3,16.1-6.8,3.1-4.5,4.8-12.3,5.2-23.2l3.1-96.1c-6-7.6-13.3-11.5-21.9-11.5s-.9-.6-.9-1.9.3-1.9.9-1.9l17,.3,14.8-.3c2.7,0,4.8.9,6.5,2.8,1.6,1.9,4.2,6.3,7.7,13.3l50.7,101.1,45.7-109.4c.8-2.3,2.1-4.1,3.9-5.6,1.7-1.4,3.6-2.2,5.4-2.2l16.4.3,20.7-.3c.4,0,.6.6.6,1.9s-.2,1.9-.6,1.9c-9.3,0-15.8,1.4-19.5,4.2s-5.4,8.3-4.9,16.6l3.7,95.5c.4,6.4,1.1,11.1,2.2,14,1,2.9,3,4.9,6,5.9,3,1,7.8,1.5,14.4,1.5s.6.6.6,1.9Z" />
        </g>
        <g>
          <path class="cls-1"
            d="M232.6,643c0,0,.1.1.1.4s0,.4-.1.4c-.8,0-1.7,0-2.6,0-.9,0-1.9,0-2.9,0s-2,0-2.9,0-1.8,0-2.5,0-.2-.1-.2-.4,0-.4.2-.4c1.6,0,2.6-.3,3-.8.5-.5.7-1.6.7-3.4v-13.4c0-1.2,0-2.1-.1-2.6,0-.5-.3-.8-.7-.9-.4-.1-1.1-.2-2-.2h-7c-1,0-1.6,0-2,.2-.4.1-.7.4-.8,1-.1.5-.1,1.4-.1,2.7v13.3c0,1.7.2,2.8.6,3.4.4.5,1.4.8,3,.8s.1.1.1.4,0,.4-.1.4c-.8,0-1.6,0-2.5,0-.9,0-1.8,0-2.8,0s-2,0-2.9,0-1.8,0-2.6,0-.2-.1-.2-.4,0-.4.2-.4c1.6,0,2.7-.3,3.1-.8.5-.5.7-1.6.7-3.4v-13.4c0-1.8-.2-2.9-.7-3.4-.5-.5-1.5-.8-3.1-.8s-.2-.1-.2-.4,0-.4.2-.4h27.1c0,0,.1.1.1.4s0,.4-.1.4c-1.7,0-2.7.3-3.2.8-.4.6-.7,1.7-.7,3.4v13.3c0,1.7.2,2.8.7,3.4.4.5,1.5.8,3.2.8Z" />
          <path class="cls-1"
            d="M235.5,660.2c-.1,0-.2-.1-.2-.4s0-.4.2-.4c1.8,0,3-.3,3.6-.8.5-.5.8-1.6.8-3.4v-29.9c0-1.7-.3-2.8-1-3.3-.7-.5-2-.8-4-.8s-.2-.1-.2-.4,0-.4.2-.4h7.3c.4,0,.7.1.9.3.2.2.2.6.2,1.3v33.2c0,1.1.2,2,.5,2.6.3.6.9,1,1.7,1.2.9.2,2.1.3,3.8.3s.2.1.2.4,0,.4-.2.4c-1.1,0-2.3,0-3.6,0-1.3,0-2.7,0-4.1,0s-2.2,0-3.3,0c-1.1,0-2,0-2.8,0ZM249.6,644.5c-1.6,0-2.9-.2-4.1-.5-1.2-.4-2.4-1-3.8-2l.9-3.3c1,1.3,2.2,2.4,3.6,3.3,1.3.9,3.1,1.3,5.2,1.3s3.8-.9,5.2-2.8c1.4-1.8,2.1-4.4,2.1-7.8s-.8-6.1-2.3-7.9-3.4-2.7-5.6-2.7-3.4.5-4.7,1.5c-1.3,1-2.6,2.2-3.8,3.5l-.5-.5c2-2.4,4-4.1,5.9-5.2,1.9-1.1,3.8-1.6,5.7-1.6s3.2.4,4.5,1.3c1.4.9,2.5,2.1,3.4,3.8.9,1.6,1.3,3.6,1.3,6s-.4,4.5-1.3,6.2c-.8,1.7-1.9,3.1-3.2,4.2-1.3,1.1-2.7,1.9-4.2,2.4-1.5.5-2.9.8-4.2.8Z" />
          <path class="cls-1"
            d="M278.6,644.5c-2.4,0-4.4-.6-6.2-1.7-1.8-1.2-3.1-2.7-4.1-4.7-1-1.9-1.4-4-1.4-6.3s.4-3.9,1.1-5.4,1.8-2.8,3.1-3.8c1.3-1,2.7-1.7,4.2-2.2,1.5-.5,3-.7,4.4-.7,2.4,0,4.5.6,6.3,1.8,1.7,1.2,3.1,2.7,4,4.6.9,1.9,1.4,3.9,1.4,5.9s-.6,4.8-1.7,6.6c-1.2,1.8-2.7,3.3-4.6,4.3-1.9,1-4,1.5-6.4,1.5ZM280.4,643.4c2.1,0,3.8-.8,5-2.2,1.2-1.5,1.9-3.9,1.9-7.3s-.4-4.7-1.2-6.7c-.8-1.9-2-3.5-3.4-4.6-1.4-1.1-3.1-1.6-4.9-1.6s-3.8.8-5,2.3-1.8,3.8-1.8,6.7.4,4.7,1.2,6.7c.8,2,1.9,3.7,3.3,4.9,1.4,1.2,3,1.8,4.9,1.8Z" />
          <path class="cls-1"
            d="M303.2,644.5c-2.1,0-3.9-1-5.4-3.1-1.5-2.1-2.2-4.9-2.2-8.4s.3-4.4,1-6.1c.7-1.7,1.5-3,2.6-4.1,1-1,2.1-1.8,3.3-2.3,1.2-.5,2.2-.8,3.2-.8s2,.3,3.2,1c1.2.7,2.4,2,3.6,4l-.5,2.5c-.9-1.8-2-3.2-3.2-4.4-1.3-1.2-2.6-1.8-4-1.8s-3,.9-3.9,2.7-1.4,4.2-1.4,7.3.5,6.5,1.6,8.5c1.1,2,2.5,3,4.1,3s2.6-.5,3.8-1.5c1.1-1,2-2,2.9-3l.6.4c-1.7,2.1-3.3,3.6-4.8,4.6-1.5,1-3,1.4-4.4,1.4ZM305.1,660.2c-.1,0-.2-.1-.2-.4s0-.4.2-.4c1.7,0,2.9-.1,3.8-.3.8-.2,1.4-.6,1.7-1.2.3-.6.4-1.5.4-2.6v-47.5c0-1.4-.1-2.4-.4-3.1-.3-.7-.8-1-1.4-1s-1.6.3-2.8.8c-.2,0-.3,0-.4-.2-.1-.2,0-.4,0-.4l7.6-3.7c0,0,.2,0,.2,0,.1,0,.2,0,.4.2.1,0,.2.2.2.3v54.7c0,1.1.1,2,.4,2.6.3.6.8,1,1.6,1.2.8.2,2,.3,3.5.3s.1.1.1.4,0,.4-.1.4c-1,0-2.1,0-3.4,0-1.2,0-2.5,0-3.8,0s-2.8,0-4.1,0c-1.3,0-2.5,0-3.5,0ZM319.6,644.5c-1,0-2.1-.3-3.3-1-1.2-.7-2.3-2-3.5-4l.5-2.5c.8,1.8,1.9,3.2,3.2,4.4,1.3,1.2,2.6,1.8,4,1.8s3-.9,4-2.7c.9-1.8,1.4-4.2,1.4-7.3s-.6-6.5-1.7-8.5c-1.1-2-2.5-3-4.2-3s-2.5.5-3.7,1.5c-1.1,1-2.1,2-2.9,3l-.5-.4c1.7-2.1,3.3-3.6,4.8-4.6,1.5-.9,3-1.4,4.4-1.4,2.1,0,3.9,1,5.3,3.1,1.5,2.1,2.2,4.9,2.2,8.4s-.3,4.4-1,6.1c-.7,1.7-1.5,3-2.5,4.1-1,1-2.2,1.8-3.3,2.3-1.2.5-2.2.8-3.2.8Z" />
          <path class="cls-1"
            d="M345.7,644.5c-2.4,0-4.4-.6-6.2-1.7-1.8-1.2-3.1-2.7-4.1-4.7-1-1.9-1.4-4-1.4-6.3s.4-3.9,1.1-5.4,1.8-2.8,3.1-3.8c1.3-1,2.7-1.7,4.2-2.2,1.5-.5,3-.7,4.4-.7,2.4,0,4.5.6,6.3,1.8,1.7,1.2,3.1,2.7,4,4.6.9,1.9,1.4,3.9,1.4,5.9s-.6,4.8-1.7,6.6c-1.2,1.8-2.7,3.3-4.6,4.3-1.9,1-4,1.5-6.4,1.5ZM347.4,643.4c2.1,0,3.8-.8,5-2.2,1.2-1.5,1.9-3.9,1.9-7.3s-.4-4.7-1.2-6.7c-.8-1.9-2-3.5-3.4-4.6-1.4-1.1-3.1-1.6-4.9-1.6s-3.8.8-5,2.3-1.8,3.8-1.8,6.7.4,4.7,1.2,6.7c.8,2,1.9,3.7,3.3,4.9,1.4,1.2,3,1.8,4.9,1.8Z" />
          <path class="cls-1"
            d="M361.6,660.2c-.1,0-.2-.1-.2-.4s0-.4.2-.4c1.8,0,3-.3,3.6-.8.5-.5.8-1.6.8-3.4v-29.9c0-1.7-.3-2.8-1-3.3-.7-.5-2-.8-4-.8s-.2-.1-.2-.4,0-.4.2-.4h7.3c.4,0,.7.1.9.3.2.2.2.6.2,1.3v33.2c0,1.1.2,2,.5,2.6.3.6.9,1,1.7,1.2.9.2,2.1.3,3.8.3s.2.1.2.4,0,.4-.2.4c-1.1,0-2.3,0-3.6,0-1.3,0-2.7,0-4.1,0s-2.2,0-3.3,0c-1.1,0-2,0-2.8,0ZM375.7,644.5c-1.6,0-2.9-.2-4.1-.5-1.2-.4-2.4-1-3.8-2l.9-3.3c1,1.3,2.2,2.4,3.6,3.3,1.3.9,3.1,1.3,5.2,1.3s3.8-.9,5.2-2.8c1.4-1.8,2.1-4.4,2.1-7.8s-.8-6.1-2.3-7.9-3.4-2.7-5.6-2.7-3.4.5-4.7,1.5c-1.3,1-2.6,2.2-3.8,3.5l-.5-.5c2-2.4,4-4.1,5.9-5.2,1.9-1.1,3.8-1.6,5.7-1.6s3.2.4,4.5,1.3c1.4.9,2.5,2.1,3.4,3.8.9,1.6,1.3,3.6,1.3,6s-.4,4.5-1.3,6.2c-.8,1.7-1.9,3.1-3.2,4.2-1.3,1.1-2.7,1.9-4.2,2.4-1.5.5-2.9.8-4.2.8Z" />
          <path class="cls-1"
            d="M396.6,638.9v-13.4c0-1.8-.2-2.9-.7-3.4-.5-.5-1.5-.8-3.1-.8s-.2-.1-.2-.4,0-.4.2-.4c.8,0,1.6,0,2.6,0s1.9,0,2.9,0,1.9,0,2.9,0,1.8,0,2.6,0,.1.1.1.4,0,.4-.1.4c-1.7,0-2.7.3-3.2.8-.4.6-.7,1.7-.7,3.4v13.3c0,1.7.2,2.8.7,3.4.4.5,1.5.8,3.2.8s.1.1.1.4,0,.4-.1.4c-.8,0-1.7,0-2.6,0-.9,0-1.9,0-2.9,0s-2,0-2.9,0-1.8,0-2.6,0-.2-.1-.2-.4,0-.4.2-.4c1.6,0,2.7-.3,3.1-.8.5-.5.7-1.6.7-3.4ZM398.5,640.9l-.8-.8,16.3-16.3.8.8-16.3,16.3ZM412.7,638.9v-13.4c0-1.8-.2-2.9-.7-3.4-.5-.5-1.5-.8-3.1-.8s-.2-.1-.2-.4,0-.4.2-.4c.8,0,1.6,0,2.6,0s1.9,0,2.9,0,1.9,0,2.9,0,1.8,0,2.6,0,.1.1.1.4,0,.4-.1.4c-1.7,0-2.7.3-3.2.8-.4.6-.7,1.7-.7,3.4v13.3c0,1.7.2,2.8.7,3.4.4.5,1.5.8,3.2.8s.1.1.1.4,0,.4-.1.4c-.8,0-1.7,0-2.6,0-.9,0-1.9,0-2.9,0s-2,0-3,0c-1,0-1.9,0-2.6,0s-.2-.1-.2-.4,0-.4.2-.4c1.6,0,2.7-.3,3.1-.8.5-.5.7-1.6.7-3.4Z" />
          <path class="cls-1"
            d="M435.2,644.5c-2.5,0-4.6-.5-6.2-1.6-1.7-1.1-2.9-2.5-3.8-4.3-.8-1.8-1.3-3.6-1.3-5.6s.6-4.6,1.7-6.6c1.1-1.9,2.7-3.5,4.6-4.6,1.9-1.1,4.1-1.7,6.6-1.7s3.9.5,5.1,1.6c1.2,1.1,1.8,2.5,1.8,4.4s0,.8-.1,1c0,.2-.3.4-.6.4h-3.5c.2-2-.2-3.5-1.1-4.5-.9-1.1-2.1-1.6-3.6-1.6-2.2,0-4,.8-5.1,2.5-1.2,1.7-1.8,4-1.8,6.8s.4,4.3,1.1,6.1c.7,1.8,1.8,3.2,3.2,4.2,1.4,1,3.1,1.5,5.1,1.5s2.1-.2,3.2-.5c1.1-.3,2.1-.8,3.1-1.5,0,0,.2,0,.3.2.1.2.2.3,0,.5-1.4,1.2-2.9,2.1-4.3,2.7s-2.9.8-4.4.8ZM426.8,627.5v-.8c0,0,13.6-.3,13.6-.3v1h-13.6Z" />
          <path class="cls-1"
            d="M452,638.9v-13.4c0-1.8-.2-2.9-.7-3.4-.5-.5-1.5-.8-3.1-.8s-.2-.1-.2-.4,0-.4.2-.4c.8,0,1.6,0,2.6,0s1.9,0,2.9,0,1.9,0,2.9,0,1.8,0,2.6,0,.1.1.1.4,0,.4-.1.4c-1.7,0-2.7.3-3.2.8-.4.6-.7,1.7-.7,3.4v13.3c0,1.7.2,2.8.7,3.4.4.5,1.5.8,3.2.8s.1.1.1.4,0,.4-.1.4c-.8,0-1.7,0-2.6,0-.9,0-1.9,0-2.9,0s-2,0-2.9,0-1.8,0-2.6,0-.2-.1-.2-.4,0-.4.2-.4c1.6,0,2.7-.3,3.1-.8.5-.5.7-1.6.7-3.4ZM453.6,632.8v-1.2h16.1v1.2h-16.1ZM468.2,638.9v-13.4c0-1.8-.2-2.9-.7-3.4-.5-.5-1.5-.8-3.1-.8s-.2-.1-.2-.4,0-.4.2-.4c.8,0,1.6,0,2.6,0s1.9,0,2.9,0,1.9,0,2.9,0,1.8,0,2.6,0,.1.1.1.4,0,.4-.1.4c-1.7,0-2.7.3-3.2.8-.4.6-.7,1.7-.7,3.4v13.3c0,1.7.2,2.8.7,3.4.4.5,1.5.8,3.2.8s.1.1.1.4,0,.4-.1.4c-.8,0-1.7,0-2.6,0-.9,0-1.9,0-2.9,0s-2,0-3,0c-1,0-1.9,0-2.6,0s-.2-.1-.2-.4,0-.4.2-.4c1.6,0,2.7-.3,3.1-.8.5-.5.7-1.6.7-3.4Z" />
          <path class="cls-1"
            d="M484.4,643.7c0,0-.1-.1-.1-.4s0-.4.1-.4c1.6,0,2.7-.3,3.2-.8.5-.5.7-1.6.7-3.4v-13.3c0-1.6-.2-2.7-.5-3.3s-1.2-.8-2.5-.8-2.7.5-3.7,1.4c-.9.9-1.5,2.8-1.6,5.5,0,0-.1.1-.4.1s-.4,0-.4-.1v-2.5c0-1.1,0-2.3,0-3.5,0-1.2,0-2.2,0-2.9s.1-.3.4-.3.4,0,.4.3c0,.6.9.9,2.8,1,1.8.1,4.3.2,7.3.2s3.7,0,5.2,0c1.5,0,2.7-.1,3.5-.3.8-.2,1.3-.5,1.3-.8s.1-.3.4-.3.4,0,.4.3v2.9c0,1.2,0,2.4,0,3.5,0,1.1,0,2,0,2.5s-.1.1-.4.1-.4,0-.4-.1c-.2-2.8-.7-4.6-1.7-5.5-1-.9-2.2-1.4-3.7-1.4s-2,.3-2.3.8c-.3.5-.5,1.6-.5,3.3v13.3c0,1.7.2,2.8.7,3.4.4.5,1.5.8,3.1.8s.2.1.2.4,0,.4-.2.4c-.8,0-1.6,0-2.6,0-.9,0-1.9,0-2.9,0s-1.9,0-2.9,0c-1,0-1.9,0-2.7,0Z" />
          <path class="cls-1"
            d="M509.7,644.2c-1.3,0-2.2-.4-2.9-1-.6-.7-1-1.5-1-2.4s.4-2,1.3-2.7c.9-.7,2.3-1.3,4.3-2l7.9-2.8.2.7-7,2.6c-.9.4-1.6.8-2,1.2-.4.4-.6,1-.6,1.7s.2,1.5.7,2,1.1.7,1.9.7.9,0,1.3-.1c.4,0,.8-.2,1.2-.5l5.1-2.6v.7c.1,0-5.1,2.8-5.1,2.8-1.2.6-2.2,1-3,1.3-.8.3-1.6.5-2.4.5ZM521.5,644.1c-.2,0-.3.1-.5.1-.5,0-1-.4-1.5-1.3-.5-.9-.7-2.1-.7-3.8v-10.7c0-1.9-.2-3.3-.5-4.4s-.8-1.8-1.4-2.2c-.6-.4-1.2-.6-2-.6s-1.8.3-2.5.8c-.6.5-1.1,1.1-1.4,1.9-.3.8-.5,1.5-.7,2.3,0,.6-.2,1.1-.5,1.6-.3.5-.9.7-1.7.7s-1.1-.2-1.5-.5-.5-.8-.5-1.3.4-1.5,1.1-2.2c.7-.8,1.6-1.5,2.7-2.2,1.1-.7,2.3-1.2,3.5-1.6,1.2-.4,2.4-.6,3.4-.6s2.8.5,3.8,1.6c1,1.1,1.5,2.7,1.5,5v10.6c0,1.4.2,2.4.5,3.1.4.6.9,1,1.7,1s1.7-.3,3-.8c.2,0,.3,0,.4.2,0,.2,0,.4-.2.5l-6.2,2.9Z" />
          <path class="cls-1"
            d="M529.7,643.7c-.1,0-.2-.1-.2-.4s0-.4.2-.4c1.6,0,2.6-.3,3.1-.8s.7-1.7.7-3.4v-13.3c0-1.8-.2-2.9-.7-3.4-.5-.5-1.5-.8-3.1-.8s-.2-.1-.2-.4,0-.4.2-.4c.8,0,1.6,0,2.5,0,.9,0,1.9,0,2.8,0s2,0,2.9,0,1.8,0,2.6,0,.1.1.1.4,0,.4-.1.4c-1.6,0-2.6.3-3.1.8-.4.5-.7,1.6-.7,3.4v13.4c0,1.2,0,2,.1,2.5,0,.5.3.8.7,1,.4.1,1.1.2,2,.2h6.8c1,0,1.7,0,2.1-.2s.7-.5.8-1c0-.5.1-1.4.1-2.6v-13.3c0-1.8-.2-2.9-.7-3.4-.5-.5-1.5-.8-3-.8s-.1-.1-.1-.4,0-.4.1-.4c.8,0,1.6,0,2.5,0,.9,0,1.8,0,2.8,0s2,0,3,0,1.8,0,2.6,0,.2.1.2.4,0,.4-.2.4c-1.7,0-2.8.3-3.2.8-.5.5-.7,1.6-.7,3.4v13.4c0,1,0,1.8.2,2.3.2.5.5.9,1.1,1,.6.2,1.4.3,2.6.3s.5,0,.6,0c0,0,0,.3,0,.6s0,1,0,1.5c0,.6-.1,1.4-.2,2.5,0,1.1,0,2.5,0,4.4s-.1.2-.4.2-.4,0-.4-.2c0-2-.2-3.6-.5-4.8-.3-1.1-1-1.9-1.9-2.4-.9-.5-2.2-.7-3.9-.7h-20.3Z" />
          <path class="cls-1"
            d="M564.2,638.9v-13.4c0-1.8-.2-2.9-.7-3.4-.5-.5-1.5-.8-3.1-.8s-.2-.1-.2-.4,0-.4.2-.4c.8,0,1.6,0,2.6,0s1.9,0,2.9,0,1.9,0,2.9,0,1.8,0,2.6,0,.1.1.1.4,0,.4-.1.4c-1.7,0-2.7.3-3.2.8-.4.6-.7,1.7-.7,3.4v13.3c0,1.7.2,2.8.7,3.4.4.5,1.5.8,3.2.8s.1.1.1.4,0,.4-.1.4c-.8,0-1.7,0-2.6,0s-1.9,0-2.8,0-2,0-2.9,0-1.8,0-2.6,0-.2-.1-.2-.4,0-.4.2-.4c1.6,0,2.7-.3,3.2-.8.5-.5.7-1.6.7-3.4ZM566.1,640.9l-.8-.8,16.3-16.3.8.8-16.3,16.3ZM580.4,638.9v-13.4c0-1.8-.2-2.9-.7-3.4-.5-.5-1.5-.8-3.1-.8s-.2-.1-.2-.4,0-.4.2-.4c.8,0,1.6,0,2.6,0s1.9,0,2.9,0,1.9,0,2.9,0c1,0,1.8,0,2.6,0s.1.1.1.4,0,.4-.1.4c-1.7,0-2.7.3-3.2.8-.4.6-.7,1.7-.7,3.4v13.3c0,1.7.2,2.8.7,3.4.4.5,1.5.8,3.2.8s.1.1.1.4,0,.4-.1.4c-.8,0-1.7,0-2.6,0-.9,0-1.9,0-2.9,0s-2,0-3,0c-1,0-1.9,0-2.6,0s-.2-.1-.2-.4,0-.4.2-.4c1.6,0,2.7-.3,3.2-.8.5-.5.7-1.6.7-3.4Z" />
          <path class="cls-1"
            d="M603.3,644.5c-2.4,0-4.4-.6-6.2-1.7-1.8-1.2-3.1-2.7-4.1-4.7-1-1.9-1.4-4-1.4-6.3s.4-3.9,1.1-5.4c.8-1.5,1.8-2.8,3.1-3.8,1.3-1,2.7-1.7,4.2-2.2,1.5-.5,3-.7,4.4-.7,2.4,0,4.5.6,6.3,1.8,1.7,1.2,3.1,2.7,4,4.6.9,1.9,1.4,3.9,1.4,5.9s-.6,4.8-1.7,6.6c-1.2,1.8-2.7,3.3-4.6,4.3-1.9,1-4,1.5-6.4,1.5ZM605,643.4c2.1,0,3.8-.8,5-2.2,1.2-1.5,1.9-3.9,1.9-7.3s-.4-4.7-1.2-6.7c-.8-1.9-1.9-3.5-3.4-4.6-1.4-1.1-3.1-1.6-4.9-1.6s-3.8.8-5,2.3c-1.2,1.6-1.8,3.8-1.8,6.7s.4,4.7,1.2,6.7c.8,2,1.9,3.7,3.3,4.9,1.4,1.2,3,1.8,4.9,1.8Z" />
          <path class="cls-1"
            d="M623.9,638.9v-13.4c0-1.8-.2-2.9-.7-3.4-.5-.5-1.5-.8-3.1-.8s-.2-.1-.2-.4,0-.4.2-.4c.8,0,1.6,0,2.6,0s1.9,0,2.9,0,1.9,0,2.9,0,1.8,0,2.6,0,.1.1.1.4,0,.4-.1.4c-1.7,0-2.7.3-3.2.8-.4.6-.7,1.7-.7,3.4v13.3c0,1.7.2,2.8.7,3.4.4.5,1.5.8,3.2.8s.1.1.1.4,0,.4-.1.4c-.8,0-1.7,0-2.6,0s-1.9,0-2.8,0-2,0-2.9,0-1.8,0-2.6,0-.2-.1-.2-.4,0-.4.2-.4c1.6,0,2.7-.3,3.2-.8.5-.5.7-1.6.7-3.4ZM625.5,632.8v-1.2h16.1v1.2h-16.1ZM640.1,638.9v-13.4c0-1.8-.2-2.9-.7-3.4-.5-.5-1.5-.8-3.1-.8s-.2-.1-.2-.4,0-.4.2-.4c.8,0,1.6,0,2.6,0s1.9,0,2.9,0,1.9,0,2.9,0c1,0,1.8,0,2.6,0s.1.1.1.4,0,.4-.1.4c-1.7,0-2.7.3-3.2.8-.4.6-.7,1.7-.7,3.4v13.3c0,1.7.2,2.8.7,3.4.4.5,1.5.8,3.2.8s.1.1.1.4,0,.4-.1.4c-.8,0-1.7,0-2.6,0-.9,0-1.9,0-2.9,0s-2,0-3,0c-1,0-1.9,0-2.6,0s-.2-.1-.2-.4,0-.4.2-.4c1.6,0,2.7-.3,3.2-.8.5-.5.7-1.6.7-3.4Z" />
          <path class="cls-1"
            d="M654.9,638.9v-13.4c0-1.8-.2-2.9-.7-3.4-.5-.5-1.5-.8-3.1-.8s-.2-.1-.2-.4,0-.4.2-.4c.8,0,1.6,0,2.6,0s1.9,0,2.9,0,1.9,0,2.9,0,1.8,0,2.6,0,.1.1.1.4,0,.4-.1.4c-1.7,0-2.7.3-3.2.8-.4.6-.7,1.7-.7,3.4v13.3c0,1.7.2,2.8.7,3.4.4.5,1.5.8,3.2.8s.1.1.1.4,0,.4-.1.4c-.8,0-1.7,0-2.6,0s-1.9,0-2.8,0-2,0-2.9,0-1.8,0-2.6,0-.2-.1-.2-.4,0-.4.2-.4c1.6,0,2.7-.3,3.2-.8.5-.5.7-1.6.7-3.4ZM656.5,632.8v-1.2h16.1v1.2h-16.1ZM671,638.9v-13.4c0-1.8-.2-2.9-.7-3.4-.5-.5-1.5-.8-3.1-.8s-.2-.1-.2-.4,0-.4.2-.4c.8,0,1.6,0,2.6,0s1.9,0,2.9,0,1.9,0,2.9,0c1,0,1.8,0,2.6,0s.1.1.1.4,0,.4-.1.4c-1.7,0-2.7.3-3.2.8-.4.6-.7,1.7-.7,3.4v13.3c0,1.7.2,2.8.7,3.4.4.5,1.5.8,3.2.8s.1.1.1.4,0,.4-.1.4c-.8,0-1.7,0-2.6,0-.9,0-1.9,0-2.9,0s-2,0-3,0c-1,0-1.9,0-2.6,0s-.2-.1-.2-.4,0-.4.2-.4c1.6,0,2.7-.3,3.2-.8.5-.5.7-1.6.7-3.4Z" />
          <path class="cls-1"
            d="M689.2,625.6v13.3c0,1.4.3,2.5.9,3.1.6.6,1.9,1,3.8,1s3.3-.5,4.2-1.3,1.4-2.2,1.4-3.9-.5-3.5-1.4-4.7c-1-1.2-2.6-1.8-4.8-1.8s-1.7,0-2.5.2c-.8.2-1.7.5-2.6.9l-.4-.8c1.3-.6,2.6-.9,3.9-1.1,1.3-.2,2.5-.3,3.8-.3,5.3,0,7.9,2.1,7.9,6.2s-.8,4-2.3,5.4c-1.6,1.4-3.5,2.1-5.9,2.1s-1.4,0-2.3,0-1.8,0-2.7-.1-1.8,0-2.5,0-2,0-2.9,0-1.8,0-2.6,0-.2-.1-.2-.4,0-.4.2-.4c1.6,0,2.7-.3,3.2-.8.5-.5.7-1.6.7-3.4v-13.4c0-1.8-.2-2.9-.7-3.4-.5-.5-1.5-.8-3.1-.8s-.2-.1-.2-.4,0-.4.2-.4c.8,0,1.6,0,2.6,0s1.9,0,2.9,0,2.2,0,3.3,0,2,0,2.9,0,.2.1.2.4,0,.4-.2.4c-1.9,0-3.2.3-3.7.8s-.8,1.7-.8,3.4ZM705.2,643.7c-.1,0-.2-.1-.2-.4s0-.4.2-.4c1.7,0,2.7-.3,3.2-.8.4-.5.7-1.6.7-3.4v-13.4c0-1.8-.2-2.9-.7-3.4-.4-.5-1.5-.8-3.1-.8s-.2-.1-.2-.4,0-.4.2-.4c.8,0,1.6,0,2.6,0s2,0,3,0,1.9,0,2.9,0,1.8,0,2.5,0,.2.1.2.4,0,.4-.2.4c-1.6,0-2.6.3-3.1.8-.5.6-.7,1.7-.7,3.4v13.3c0,1.7.2,2.8.7,3.4.5.5,1.5.8,3.1.8s.2.1.2.4,0,.4-.2.4c-.7,0-1.6,0-2.5,0-.9,0-1.9,0-2.8,0s-2,0-3,0-1.8,0-2.6,0Z" />
          <path class="cls-1"
            d="M731.6,644.5c-2.5,0-4.6-.5-6.2-1.6-1.7-1.1-2.9-2.5-3.8-4.3-.8-1.8-1.3-3.6-1.3-5.6s.6-4.6,1.7-6.6c1.1-1.9,2.7-3.5,4.6-4.6,1.9-1.1,4.1-1.7,6.6-1.7s3.9.5,5.1,1.6c1.2,1.1,1.8,2.5,1.8,4.4s0,.8-.1,1c0,.2-.3.4-.6.4h-3.5c.2-2-.2-3.5-1-4.5-.9-1.1-2.1-1.6-3.6-1.6-2.2,0-4,.8-5.1,2.5-1.2,1.7-1.8,4-1.8,6.8s.4,4.3,1.1,6.1c.7,1.8,1.8,3.2,3.2,4.2,1.4,1,3.1,1.5,5.1,1.5s2.1-.2,3.2-.5c1.1-.3,2.1-.8,3.1-1.5,0,0,.2,0,.3.2.1.2.2.3,0,.5-1.4,1.2-2.9,2.1-4.3,2.7-1.4.5-2.9.8-4.4.8ZM723.2,627.5v-.8c0,0,13.6-.3,13.6-.3v1h-13.6Z" />
          <path class="cls-1"
            d="M763.8,643.7c0,0-.1-.1-.1-.4s0-.4.1-.4c1.6,0,2.7-.3,3.2-.8.5-.5.7-1.6.7-3.4v-13.3c0-1.6-.2-2.7-.5-3.3s-1.2-.8-2.5-.8-2.7.5-3.7,1.4c-.9.9-1.5,2.8-1.6,5.5,0,0-.1.1-.4.1s-.4,0-.4-.1v-2.5c0-1.1,0-2.3,0-3.5,0-1.2,0-2.2,0-2.9s.1-.3.4-.3.4,0,.4.3c0,.6.9.9,2.8,1s4.3.2,7.3.2,3.7,0,5.2,0c1.5,0,2.7-.1,3.5-.3.8-.2,1.3-.5,1.3-.8s.1-.3.4-.3.4,0,.4.3v2.9c0,1.2,0,2.4,0,3.5,0,1.1,0,2,0,2.5s-.1.1-.4.1-.4,0-.4-.1c-.2-2.8-.7-4.6-1.7-5.5-1-.9-2.2-1.4-3.7-1.4s-2,.3-2.3.8c-.3.5-.5,1.6-.5,3.3v13.3c0,1.7.2,2.8.7,3.4.4.5,1.5.8,3.1.8s.2.1.2.4,0,.4-.2.4c-.8,0-1.6,0-2.5,0-.9,0-1.9,0-2.9,0s-1.9,0-2.9,0-1.9,0-2.7,0Z" />
          <path class="cls-1"
            d="M807.9,620.6c.1,0,.2.1.2.4s0,.4-.2.4c-1,0-1.9.3-2.6,1-.7.7-1.4,1.9-2,3.6l-7.3,19.5c-1.4,3.8-2.8,6.9-4.1,9.1-1.3,2.2-2.7,3.8-4.1,4.7-1.4.9-3,1.4-4.7,1.4s-1.6-.2-2.2-.6c-.6-.4-.9-1-.9-1.8s.2-1,.6-1.3c.4-.3.8-.5,1.3-.5.8,0,1.4.1,1.8.4s.8.5,1.2.7c.4.2.9.4,1.6.4,1,0,1.9-.5,2.8-1.4s1.9-2.4,2.9-4.6,2.3-5.1,3.7-8.8v1.7c0,0-9.5-19.3-9.5-19.3-.9-1.8-1.6-2.9-2.1-3.5-.5-.5-1.1-.8-1.9-.8s-.1-.1-.1-.4,0-.4.1-.4c.6,0,1.3,0,2,0,.7,0,1.4,0,2,0,1.3,0,2.5,0,3.5,0s1.9,0,2.7,0,.1.1.1.4,0,.4-.1.4c-1.3,0-2.2.2-2.9.5-.7.3-.8.9-.3,1.9l8.2,16.9-1.4,2.5,5.9-16.9c.6-1.8.6-3,0-3.8s-2-1.1-4.1-1.1-.1-.1-.1-.4,0-.4.1-.4c1,0,1.9,0,2.7,0s2,0,3.3,0,1.6,0,2.1,0,1.2,0,1.9,0Z" />
          <path class="cls-1"
            d="M809.2,660.2c-.1,0-.2-.1-.2-.4s0-.4.2-.4c1.8,0,3-.3,3.6-.8.5-.5.8-1.6.8-3.4v-29.9c0-1.7-.3-2.8-1-3.3-.7-.5-2-.8-4-.8s-.2-.1-.2-.4,0-.4.2-.4h7.3c.4,0,.7.1.9.3.2.2.2.6.2,1.3v33.2c0,1.1.2,2,.5,2.6.3.6.9,1,1.7,1.2.9.2,2.1.3,3.8.3s.2.1.2.4,0,.4-.2.4c-1.1,0-2.3,0-3.6,0-1.3,0-2.7,0-4.1,0s-2.2,0-3.3,0c-1.1,0-2,0-2.8,0ZM823.3,644.5c-1.6,0-2.9-.2-4.1-.5-1.2-.4-2.4-1-3.8-2l.9-3.3c1,1.3,2.2,2.4,3.6,3.3,1.3.9,3.1,1.3,5.2,1.3s3.8-.9,5.2-2.8c1.4-1.8,2.1-4.4,2.1-7.8s-.8-6.1-2.3-7.9c-1.6-1.8-3.4-2.7-5.6-2.7s-3.4.5-4.7,1.5c-1.3,1-2.6,2.2-3.8,3.5l-.5-.5c2-2.4,4-4.1,5.9-5.2,1.9-1.1,3.8-1.6,5.7-1.6s3.2.4,4.5,1.3c1.4.9,2.5,2.1,3.4,3.8.9,1.6,1.3,3.6,1.3,6s-.4,4.5-1.3,6.2c-.8,1.7-1.9,3.1-3.2,4.2-1.3,1.1-2.7,1.9-4.2,2.4-1.5.5-2.9.8-4.2.8Z" />
          <path class="cls-1"
            d="M847.6,625.6v13.3c0,1.4.3,2.5.9,3.1.6.6,1.9,1,3.8,1s3.3-.5,4.2-1.3,1.4-2.2,1.4-3.9-.5-3.5-1.4-4.7c-1-1.2-2.6-1.8-4.8-1.8s-1.7,0-2.5.2c-.8.2-1.7.5-2.6.9l-.4-.8c1.3-.6,2.6-.9,3.9-1.1,1.3-.2,2.5-.3,3.8-.3,5.3,0,7.9,2.1,7.9,6.2s-.8,4-2.3,5.4c-1.6,1.4-3.5,2.1-5.9,2.1s-1.4,0-2.3,0-1.8,0-2.7-.1-1.8,0-2.5,0-2,0-2.9,0-1.8,0-2.6,0-.2-.1-.2-.4,0-.4.2-.4c1.6,0,2.7-.3,3.2-.8.5-.5.7-1.6.7-3.4v-13.4c0-1.8-.2-2.9-.7-3.4-.5-.5-1.5-.8-3.1-.8s-.2-.1-.2-.4,0-.4.2-.4c.8,0,1.6,0,2.6,0s1.9,0,2.9,0,2.2,0,3.3,0,2,0,2.9,0,.2.1.2.4,0,.4-.2.4c-1.9,0-3.2.3-3.7.8s-.8,1.7-.8,3.4ZM863.6,643.7c-.1,0-.2-.1-.2-.4s0-.4.2-.4c1.7,0,2.7-.3,3.2-.8.4-.5.7-1.6.7-3.4v-13.4c0-1.8-.2-2.9-.7-3.4-.4-.5-1.5-.8-3.1-.8s-.2-.1-.2-.4,0-.4.2-.4c.8,0,1.6,0,2.6,0s2,0,3,0,1.9,0,2.9,0,1.8,0,2.5,0,.2.1.2.4,0,.4-.2.4c-1.6,0-2.6.3-3.1.8-.5.6-.7,1.7-.7,3.4v13.3c0,1.7.2,2.8.7,3.4.5.5,1.5.8,3.1.8s.2.1.2.4,0,.4-.2.4c-.7,0-1.6,0-2.5,0-.9,0-1.9,0-2.8,0s-2,0-3,0-1.8,0-2.6,0Z" />
          <path class="cls-1"
            d="M174.3,688.9v-13.4c0-1.8-.2-2.9-.7-3.4-.5-.5-1.5-.8-3.1-.8s-.2-.1-.2-.4,0-.4.2-.4c.8,0,1.6,0,2.6,0s1.9,0,2.9,0,1.9,0,2.9,0,1.8,0,2.6,0,.1.1.1.4,0,.4-.1.4c-1.7,0-2.7.3-3.2.8-.4.6-.7,1.7-.7,3.4v13.3c0,1.7.2,2.8.7,3.4.4.5,1.5.8,3.2.8s.1.1.1.4,0,.4-.1.4c-.8,0-1.7,0-2.6,0-.9,0-1.9,0-2.9,0s-2,0-2.9,0-1.8,0-2.6,0-.2-.1-.2-.4,0-.4.2-.4c1.6,0,2.7-.3,3.1-.8.5-.5.7-1.6.7-3.4ZM176.2,690.9l-.8-.8,16.3-16.3.8.8-16.3,16.3ZM190.5,688.9v-13.4c0-1.8-.2-2.9-.7-3.4-.5-.5-1.5-.8-3.1-.8s-.2-.1-.2-.4,0-.4.2-.4c.8,0,1.6,0,2.6,0s1.9,0,2.9,0,1.9,0,2.9,0,1.8,0,2.6,0,.1.1.1.4,0,.4-.1.4c-1.7,0-2.7.3-3.2.8-.4.6-.7,1.7-.7,3.4v13.3c0,1.7.2,2.8.7,3.4.4.5,1.5.8,3.2.8s.1.1.1.4,0,.4-.1.4c-.8,0-1.7,0-2.6,0-.9,0-1.9,0-2.9,0s-2,0-3,0c-1,0-1.9,0-2.6,0s-.2-.1-.2-.4,0-.4.2-.4c1.6,0,2.7-.3,3.1-.8.5-.5.7-1.6.7-3.4Z" />
          <path class="cls-1"
            d="M242.7,693c0,0,.1.1.1.4s0,.4-.1.4c-.8,0-1.7,0-2.6,0-.9,0-1.9,0-2.9,0s-2,0-2.9,0-1.8,0-2.5,0-.2-.1-.2-.4,0-.4.2-.4c1.6,0,2.6-.3,3-.8.5-.5.7-1.6.7-3.4v-13.4c0-1.2,0-2.1-.1-2.6,0-.5-.3-.8-.7-.9-.4-.1-1.1-.2-2-.2h-7c-1,0-1.6,0-2,.2-.4.1-.7.4-.8,1-.1.5-.1,1.4-.1,2.7v13.3c0,1.7.2,2.8.6,3.4.4.5,1.4.8,3,.8s.1.1.1.4,0,.4-.1.4c-.8,0-1.6,0-2.5,0-.9,0-1.8,0-2.8,0s-2,0-2.9,0-1.8,0-2.6,0-.2-.1-.2-.4,0-.4.2-.4c1.6,0,2.7-.3,3.1-.8.5-.5.7-1.6.7-3.4v-13.4c0-1.8-.2-2.9-.7-3.4-.5-.5-1.5-.8-3.1-.8s-.2-.1-.2-.4,0-.4.2-.4h27.1c0,0,.1.1.1.4s0,.4-.1.4c-1.7,0-2.7.3-3.2.8-.4.6-.7,1.7-.7,3.4v13.3c0,1.7.2,2.8.7,3.4.4.5,1.5.8,3.2.8Z" />
          <path class="cls-1"
            d="M258.4,694.5c-2.4,0-4.4-.6-6.2-1.7-1.8-1.2-3.1-2.7-4.1-4.7-1-1.9-1.4-4-1.4-6.3s.4-3.9,1.1-5.4,1.8-2.8,3.1-3.8c1.3-1,2.7-1.7,4.2-2.2,1.5-.5,3-.7,4.4-.7,2.4,0,4.5.6,6.3,1.8,1.7,1.2,3.1,2.7,4,4.6.9,1.9,1.4,3.9,1.4,5.9s-.6,4.8-1.7,6.6c-1.2,1.8-2.7,3.3-4.6,4.3-1.9,1-4,1.5-6.4,1.5ZM260.1,693.4c2.1,0,3.8-.8,5-2.2,1.2-1.5,1.9-3.9,1.9-7.3s-.4-4.7-1.2-6.7c-.8-1.9-2-3.5-3.4-4.6-1.4-1.1-3.1-1.6-4.9-1.6s-3.8.8-5,2.3-1.8,3.8-1.8,6.7.4,4.7,1.2,6.7c.8,2,1.9,3.7,3.3,4.9,1.4,1.2,3,1.8,4.9,1.8Z" />
          <path class="cls-1"
            d="M287.1,694.5c-2.7,0-4.9-.6-6.7-1.8-1.7-1.2-3-2.7-3.8-4.5-.8-1.8-1.2-3.7-1.2-5.5s.4-3.8,1.2-5.3,1.8-2.9,3.1-4c1.3-1.1,2.7-1.9,4.3-2.5,1.6-.6,3.1-.8,4.6-.8s2.3.2,3.3.5c1.1.3,1.9.7,2.6,1.3.7.6,1,1.2,1,1.9s-.2,1-.5,1.3c-.4.4-.9.6-1.6.6s-1.2-.2-1.6-.6c-.4-.4-.8-.9-1-1.4-.4-.7-1-1.3-1.6-1.7-.6-.4-1.5-.7-2.7-.7-2.3,0-4,.9-5.3,2.7-1.2,1.8-1.9,4.1-1.9,6.9s.3,3.9,1,5.7c.7,1.8,1.8,3.2,3.3,4.2,1.5,1.1,3.4,1.6,5.8,1.6s2.1-.1,3.2-.4c1-.3,2-.8,2.9-1.6,0,0,.2,0,.3.1.1.2.2.3,0,.4-1.4,1.2-2.8,2.2-4.2,2.7-1.4.6-3,.9-4.7.9Z" />
          <path class="cls-1"
            d="M305.1,693.7c0,0-.1-.1-.1-.4s0-.4.1-.4c1.6,0,2.7-.3,3.2-.8.5-.5.7-1.6.7-3.4v-13.3c0-1.6-.2-2.7-.5-3.3s-1.2-.8-2.5-.8-2.7.5-3.7,1.4c-.9.9-1.5,2.8-1.6,5.5,0,0-.1.1-.4.1s-.4,0-.4-.1v-2.5c0-1.1,0-2.3,0-3.5,0-1.2,0-2.2,0-2.9s.1-.3.4-.3.4,0,.4.3c0,.6.9.9,2.8,1,1.8.1,4.3.2,7.3.2s3.7,0,5.2,0c1.5,0,2.7-.1,3.5-.3.8-.2,1.3-.5,1.3-.8s.1-.3.4-.3.4,0,.4.3v2.9c0,1.2,0,2.4,0,3.5,0,1.1,0,2,0,2.5s-.1.1-.4.1-.4,0-.4-.1c-.2-2.8-.7-4.6-1.7-5.5-1-.9-2.2-1.4-3.7-1.4s-2,.3-2.3.8c-.3.5-.5,1.6-.5,3.3v13.3c0,1.7.2,2.8.7,3.4.4.5,1.5.8,3.1.8s.2.1.2.4,0,.4-.2.4c-.8,0-1.6,0-2.6,0-.9,0-1.9,0-2.9,0s-1.9,0-2.9,0c-1,0-1.9,0-2.7,0Z" />
          <path class="cls-1"
            d="M349.2,670.6c.1,0,.2.1.2.4s0,.4-.2.4c-1,0-1.9.3-2.6,1-.7.7-1.4,1.9-2,3.6l-7.3,19.5c-1.4,3.8-2.8,6.9-4.1,9.1-1.3,2.2-2.7,3.8-4.1,4.7-1.4.9-3,1.4-4.7,1.4s-1.6-.2-2.2-.6c-.6-.4-.9-1-.9-1.8s.2-1,.6-1.3c.4-.3.8-.5,1.3-.5.8,0,1.4.1,1.8.4.4.2.8.5,1.2.7.4.2.9.4,1.6.4,1,0,1.9-.5,2.8-1.4.9-.9,1.9-2.4,2.9-4.6,1-2.2,2.3-5.1,3.7-8.8v1.7c0,0-9.5-19.3-9.5-19.3-.9-1.8-1.6-2.9-2.1-3.5-.5-.5-1.1-.8-1.9-.8s-.1-.1-.1-.4,0-.4.1-.4c.6,0,1.3,0,2,0,.7,0,1.4,0,2,0,1.3,0,2.5,0,3.5,0,1,0,1.9,0,2.7,0s.1.1.1.4,0,.4-.1.4c-1.3,0-2.2.2-2.9.5-.7.3-.8.9-.3,1.9l8.2,16.9-1.4,2.5,5.9-16.9c.6-1.8.6-3,0-3.8-.6-.7-2-1.1-4.1-1.1s-.1-.1-.1-.4,0-.4.1-.4c1,0,1.9,0,2.7,0,.9,0,2,0,3.3,0s1.6,0,2.1,0c.5,0,1.2,0,1.9,0Z" />
          <path class="cls-1"
            d="M378.5,693c0,0,.1.1.1.4s0,.4-.1.4c-.8,0-1.7,0-2.6,0-.9,0-1.9,0-2.9,0s-2,0-2.9,0-1.8,0-2.5,0-.2-.1-.2-.4,0-.4.2-.4c1.6,0,2.6-.3,3-.8.5-.5.7-1.6.7-3.4v-13.4c0-1.2,0-2.1-.1-2.6,0-.5-.3-.8-.7-.9-.4-.1-1.1-.2-2-.2h-7c-1,0-1.6,0-2,.2-.4.1-.7.4-.8,1-.1.5-.1,1.4-.1,2.7v13.3c0,1.7.2,2.8.6,3.4.4.5,1.4.8,3,.8s.1.1.1.4,0,.4-.1.4c-.8,0-1.6,0-2.5,0-.9,0-1.8,0-2.8,0s-2,0-2.9,0-1.8,0-2.6,0-.2-.1-.2-.4,0-.4.2-.4c1.6,0,2.7-.3,3.1-.8.5-.5.7-1.6.7-3.4v-13.4c0-1.8-.2-2.9-.7-3.4-.5-.5-1.5-.8-3.1-.8s-.2-.1-.2-.4,0-.4.2-.4h27.1c0,0,.1.1.1.4s0,.4-.1.4c-1.7,0-2.7.3-3.2.8-.4.6-.7,1.7-.7,3.4v13.3c0,1.7.2,2.8.7,3.4.4.5,1.5.8,3.2.8Z" />
          <path class="cls-1"
            d="M383.7,694.2c-1.8,0-2.6-.7-2.6-2s.2-1.1.6-1.5c.4-.4.8-.5,1.3-.5s.5,0,.8,0c.3,0,.6,0,.9,0,1.1,0,2.1-.5,2.9-1.6.8-1,1.4-2.4,2-4,.5-1.6.9-3.4,1.1-5.2.2-1.8.4-3.6.4-5.2s-.3-2.1-.9-2.4c-.6-.3-1.8-.6-3.6-.7-.1,0-.2-.1-.2-.3s0-.3.2-.3h20c0,0,.1.1.1.4s0,.4-.1.4c-1,0-1.8.2-2.4.3-.5.2-.9.6-1.1,1.1-.2.6-.3,1.5-.3,2.8v13.3c0,1.2,0,2.2.3,2.7.2.6.6.9,1.1,1.1.6.1,1.4.2,2.4.3,0,0,.1.1.1.4s0,.4-.1.4c-.8,0-1.7,0-2.6,0-.9,0-1.9,0-2.8,0s-2.1,0-3,0c-1,0-1.9,0-2.6,0s-.2-.1-.2-.4,0-.4.2-.4c1.1,0,1.9-.2,2.4-.3.5-.1.9-.5,1.1-1.1.2-.6.3-1.5.3-2.7v-13.4c0-1.2,0-2.1-.1-2.6,0-.5-.3-.8-.7-.9-.4-.1-1.1-.2-2-.2h-.4c-1,0-1.7,0-2.1.3-.5.2-.8.5-.9,1-.2.5-.3,1.3-.5,2.3-.2,1.5-.4,3.1-.6,4.9-.2,1.7-.6,3.4-1,5-.4,1.6-.9,3.1-1.5,4.5-.6,1.3-1.4,2.4-2.3,3.2-.9.8-2.1,1.2-3.4,1.2Z" />
          <path class="cls-1"
            d="M421.8,694.5c-2.5,0-4.6-.5-6.2-1.6-1.7-1.1-2.9-2.5-3.8-4.3-.8-1.8-1.3-3.6-1.3-5.6s.6-4.6,1.7-6.6c1.1-1.9,2.7-3.5,4.6-4.6,1.9-1.1,4.1-1.7,6.6-1.7s3.9.5,5.1,1.6c1.2,1.1,1.8,2.5,1.8,4.4s0,.8-.1,1c0,.2-.3.4-.6.4h-3.5c.2-2-.2-3.5-1.1-4.5-.9-1.1-2.1-1.6-3.6-1.6-2.2,0-4,.8-5.1,2.5-1.2,1.7-1.8,4-1.8,6.8s.4,4.3,1.1,6.1c.7,1.8,1.8,3.2,3.2,4.2,1.4,1,3.1,1.5,5.1,1.5s2.1-.2,3.2-.5c1.1-.3,2.1-.8,3.1-1.5,0,0,.2,0,.3.2.1.2.2.3,0,.5-1.4,1.2-2.9,2.1-4.3,2.7s-2.9.8-4.4.8ZM413.4,677.5v-.8c0,0,13.6-.3,13.6-.3v1h-13.6Z" />
          <path class="cls-1"
            d="M438.6,688.9v-13.4c0-1.8-.2-2.9-.7-3.4-.5-.5-1.5-.8-3.1-.8s-.2-.1-.2-.4,0-.4.2-.4c.8,0,1.6,0,2.6,0s1.9,0,2.9,0,1.9,0,2.9,0,1.8,0,2.6,0,.1.1.1.4,0,.4-.1.4c-1.7,0-2.7.3-3.2.8-.4.6-.7,1.7-.7,3.4v13.3c0,1.7.2,2.8.7,3.4.4.5,1.5.8,3.2.8s.1.1.1.4,0,.4-.1.4c-.8,0-1.7,0-2.6,0-.9,0-1.9,0-2.9,0s-2,0-2.9,0-1.8,0-2.6,0-.2-.1-.2-.4,0-.4.2-.4c1.6,0,2.7-.3,3.1-.8.5-.5.7-1.6.7-3.4ZM440.1,682.8v-1.2h16.1v1.2h-16.1ZM454.7,688.9v-13.4c0-1.8-.2-2.9-.7-3.4-.5-.5-1.5-.8-3.1-.8s-.2-.1-.2-.4,0-.4.2-.4c.8,0,1.6,0,2.6,0s1.9,0,2.9,0,1.9,0,2.9,0,1.8,0,2.6,0,.1.1.1.4,0,.4-.1.4c-1.7,0-2.7.3-3.2.8-.4.6-.7,1.7-.7,3.4v13.3c0,1.7.2,2.8.7,3.4.4.5,1.5.8,3.2.8s.1.1.1.4,0,.4-.1.4c-.8,0-1.7,0-2.6,0-.9,0-1.9,0-2.9,0s-2,0-3,0c-1,0-1.9,0-2.6,0s-.2-.1-.2-.4,0-.4.2-.4c1.6,0,2.7-.3,3.1-.8.5-.5.7-1.6.7-3.4Z" />
          <path class="cls-1"
            d="M469.5,688.9v-13.4c0-1.8-.2-2.9-.7-3.4-.5-.5-1.5-.8-3.1-.8s-.2-.1-.2-.4,0-.4.2-.4c.8,0,1.6,0,2.6,0s1.9,0,2.9,0,1.9,0,2.9,0,1.8,0,2.6,0,.1.1.1.4,0,.4-.1.4c-1.7,0-2.7.3-3.2.8-.4.6-.7,1.7-.7,3.4v13.3c0,1.7.2,2.8.7,3.4.4.5,1.5.8,3.2.8s.1.1.1.4,0,.4-.1.4c-.8,0-1.7,0-2.6,0-.9,0-1.9,0-2.9,0s-2,0-2.9,0-1.8,0-2.6,0-.2-.1-.2-.4,0-.4.2-.4c1.6,0,2.7-.3,3.1-.8.5-.5.7-1.6.7-3.4ZM471.4,690.9l-.8-.8,16.3-16.3.8.8-16.3,16.3ZM485.7,688.9v-13.4c0-1.8-.2-2.9-.7-3.4-.5-.5-1.5-.8-3.1-.8s-.2-.1-.2-.4,0-.4.2-.4c.8,0,1.6,0,2.6,0s1.9,0,2.9,0,1.9,0,2.9,0,1.8,0,2.6,0,.1.1.1.4,0,.4-.1.4c-1.7,0-2.7.3-3.2.8-.4.6-.7,1.7-.7,3.4v13.3c0,1.7.2,2.8.7,3.4.4.5,1.5.8,3.2.8s.1.1.1.4,0,.4-.1.4c-.8,0-1.7,0-2.6,0-.9,0-1.9,0-2.9,0s-2,0-3,0c-1,0-1.9,0-2.6,0s-.2-.1-.2-.4,0-.4.2-.4c1.6,0,2.7-.3,3.1-.8.5-.5.7-1.6.7-3.4Z" />
          <path class="cls-1"
            d="M508.2,694.5c-2.5,0-4.6-.5-6.2-1.6-1.7-1.1-2.9-2.5-3.8-4.3-.8-1.8-1.3-3.6-1.3-5.6s.6-4.6,1.7-6.6c1.1-1.9,2.7-3.5,4.6-4.6,1.9-1.1,4.1-1.7,6.6-1.7s3.9.5,5.1,1.6c1.2,1.1,1.8,2.5,1.8,4.4s0,.8-.1,1c0,.2-.3.4-.6.4h-3.5c.2-2-.2-3.5-1.1-4.5-.9-1.1-2.1-1.6-3.6-1.6-2.2,0-4,.8-5.1,2.5-1.2,1.7-1.8,4-1.8,6.8s.4,4.3,1.1,6.1c.7,1.8,1.8,3.2,3.2,4.2,1.4,1,3.1,1.5,5.1,1.5s2.1-.2,3.2-.5c1.1-.3,2.1-.8,3.1-1.5,0,0,.2,0,.3.2.1.2.2.3,0,.5-1.4,1.2-2.9,2.1-4.3,2.7s-2.9.8-4.4.8ZM499.8,677.5v-.8c0,0,13.6-.3,13.6-.3v1h-13.6Z" />
          <path class="cls-1"
            d="M540.8,670.6c1,0,2.1,0,3.3,0,1.1,0,2.3,0,3.4,0,2.3,0,4.1.4,5.4,1.1,1.3.8,1.9,1.9,1.9,3.4,0,2.2-1.6,4.3-4.9,6.5l-.8-.4c.6-.6,1.1-1.2,1.4-2,.3-.7.5-1.7.5-2.8,0-1.8-.4-3.1-1.3-3.9-.9-.8-2.1-1.2-3.8-1.2s-2.3.3-2.8.8c-.5.5-.7,1.7-.7,3.5v13.3c0,1.4.3,2.4.9,3.1s1.9,1,3.9,1,3.7-.4,4.7-1.3c1-.9,1.5-2.1,1.5-3.8s-.5-3.2-1.6-4.3c-1-1.1-2.8-1.6-5.2-1.6h-5.5v-1c0,0,7.6,0,7.6,0,5.7,0,8.6,1.8,8.6,5.5s-.8,3.9-2.5,5.3c-1.7,1.4-3.8,2.1-6.4,2.1s-2.2,0-3.6-.1c-1.5,0-2.8-.1-3.9-.1s-2,0-2.9,0-1.8,0-2.6,0-.2-.1-.2-.4,0-.4.2-.4c1.6,0,2.7-.3,3.2-.8.5-.5.7-1.6.7-3.4v-13.4c0-1.8-.2-2.9-.7-3.4-.5-.5-1.5-.8-3.1-.8s-.2-.1-.2-.4,0-.4.2-.4c.8,0,1.6,0,2.6,0,1,0,1.9,0,2.9,0Z" />
          <path class="cls-1"
            d="M599.4,670.6c.1,0,.2.1.2.4s0,.4-.2.4c-1,0-1.9.3-2.6,1-.7.7-1.4,1.9-2,3.6l-7.3,19.5c-1.4,3.8-2.8,6.9-4.1,9.1-1.3,2.2-2.7,3.8-4.1,4.7-1.4.9-3,1.4-4.7,1.4s-1.6-.2-2.2-.6c-.6-.4-.9-1-.9-1.8s.2-1,.6-1.3c.4-.3.8-.5,1.3-.5.8,0,1.4.1,1.8.4s.8.5,1.2.7c.4.2.9.4,1.6.4,1,0,1.9-.5,2.8-1.4s1.9-2.4,2.9-4.6,2.3-5.1,3.7-8.8v1.7c0,0-9.5-19.3-9.5-19.3-.9-1.8-1.6-2.9-2.1-3.5-.5-.5-1.1-.8-1.9-.8s-.1-.1-.1-.4,0-.4.1-.4c.6,0,1.3,0,2,0,.7,0,1.4,0,2,0,1.3,0,2.5,0,3.5,0s1.9,0,2.7,0,.1.1.1.4,0,.4-.1.4c-1.3,0-2.2.2-2.9.5-.7.3-.8.9-.3,1.9l8.2,16.9-1.4,2.5,5.9-16.9c.6-1.8.6-3,0-3.8s-2-1.1-4.1-1.1-.1-.1-.1-.4,0-.4.1-.4c1,0,1.9,0,2.7,0s2,0,3.3,0,1.6,0,2.1,0,1.2,0,1.9,0Z" />
          <path class="cls-1"
            d="M605.4,688.9v-13.4c0-1.8-.2-2.9-.7-3.4-.5-.5-1.5-.8-3.1-.8s-.2-.1-.2-.4,0-.4.2-.4c.8,0,1.6,0,2.6,0s1.9,0,2.9,0,1.9,0,2.9,0,1.8,0,2.6,0,.1.1.1.4,0,.4-.1.4c-1.7,0-2.7.3-3.2.8-.4.6-.7,1.7-.7,3.4v13.3c0,1.7.2,2.8.7,3.4.4.5,1.5.8,3.2.8s.1.1.1.4,0,.4-.1.4c-.8,0-1.7,0-2.6,0s-1.9,0-2.8,0-2,0-2.9,0-1.8,0-2.6,0-.2-.1-.2-.4,0-.4.2-.4c1.6,0,2.7-.3,3.2-.8.5-.5.7-1.6.7-3.4ZM606.9,682.8v-1.2h16.1v1.2h-16.1ZM621.5,688.9v-13.4c0-1.8-.2-2.9-.7-3.4-.5-.5-1.5-.8-3.1-.8s-.2-.1-.2-.4,0-.4.2-.4c.8,0,1.6,0,2.6,0s1.9,0,2.9,0,1.9,0,2.9,0c1,0,1.8,0,2.6,0s.1.1.1.4,0,.4-.1.4c-1.7,0-2.7.3-3.2.8-.4.6-.7,1.7-.7,3.4v13.3c0,1.7.2,2.8.7,3.4.4.5,1.5.8,3.2.8s.1.1.1.4,0,.4-.1.4c-.8,0-1.7,0-2.6,0-.9,0-1.9,0-2.9,0s-2,0-3,0c-1,0-1.9,0-2.6,0s-.2-.1-.2-.4,0-.4.2-.4c1.6,0,2.7-.3,3.2-.8.5-.5.7-1.6.7-3.4Z" />
          <path class="cls-1"
            d="M636.3,688.9v-13.4c0-1.8-.2-2.9-.7-3.4-.5-.5-1.5-.8-3.1-.8s-.2-.1-.2-.4,0-.4.2-.4c.8,0,1.6,0,2.6,0s1.9,0,2.9,0,1.9,0,2.9,0,1.8,0,2.6,0,.1.1.1.4,0,.4-.1.4c-1.7,0-2.7.3-3.2.8-.4.6-.7,1.7-.7,3.4v13.3c0,1.7.2,2.8.7,3.4.4.5,1.5.8,3.2.8s.1.1.1.4,0,.4-.1.4c-.8,0-1.7,0-2.6,0s-1.9,0-2.8,0-2,0-2.9,0-1.8,0-2.6,0-.2-.1-.2-.4,0-.4.2-.4c1.6,0,2.7-.3,3.2-.8.5-.5.7-1.6.7-3.4ZM638.2,690.9l-.8-.8,16.3-16.3.8.8-16.3,16.3ZM652.5,688.9v-13.4c0-1.8-.2-2.9-.7-3.4-.5-.5-1.5-.8-3.1-.8s-.2-.1-.2-.4,0-.4.2-.4c.8,0,1.6,0,2.6,0s1.9,0,2.9,0,1.9,0,2.9,0c1,0,1.8,0,2.6,0s.1.1.1.4,0,.4-.1.4c-1.7,0-2.7.3-3.2.8-.4.6-.7,1.7-.7,3.4v13.3c0,1.7.2,2.8.7,3.4.4.5,1.5.8,3.2.8s.1.1.1.4,0,.4-.1.4c-.8,0-1.7,0-2.6,0-.9,0-1.9,0-2.9,0s-2,0-3,0c-1,0-1.9,0-2.6,0s-.2-.1-.2-.4,0-.4.2-.4c1.6,0,2.7-.3,3.2-.8.5-.5.7-1.6.7-3.4Z" />
          <path class="cls-1"
            d="M669,670.6c1,0,2.1,0,3.3,0,1.1,0,2.3,0,3.4,0,2.3,0,4.1.4,5.4,1.1,1.3.8,1.9,1.9,1.9,3.4,0,2.2-1.6,4.3-4.9,6.5l-.8-.4c.6-.6,1.1-1.2,1.4-2,.3-.7.5-1.7.5-2.8,0-1.8-.4-3.1-1.3-3.9-.9-.8-2.1-1.2-3.8-1.2s-2.3.3-2.8.8c-.5.5-.7,1.7-.7,3.5v13.3c0,1.4.3,2.4.9,3.1s1.9,1,3.9,1,3.7-.4,4.7-1.3c1-.9,1.5-2.1,1.5-3.8s-.5-3.2-1.6-4.3c-1-1.1-2.8-1.6-5.2-1.6h-5.5v-1c0,0,7.6,0,7.6,0,5.7,0,8.6,1.8,8.6,5.5s-.8,3.9-2.5,5.3c-1.7,1.4-3.8,2.1-6.4,2.1s-2.2,0-3.6-.1c-1.5,0-2.8-.1-3.9-.1s-2,0-2.9,0-1.8,0-2.6,0-.2-.1-.2-.4,0-.4.2-.4c1.6,0,2.7-.3,3.2-.8.5-.5.7-1.6.7-3.4v-13.4c0-1.8-.2-2.9-.7-3.4-.5-.5-1.5-.8-3.1-.8s-.2-.1-.2-.4,0-.4.2-.4c.8,0,1.6,0,2.6,0,1,0,1.9,0,2.9,0Z" />
          <path class="cls-1"
            d="M701.2,694.5c-2.5,0-4.6-.5-6.2-1.6-1.7-1.1-2.9-2.5-3.8-4.3-.8-1.8-1.3-3.6-1.3-5.6s.6-4.6,1.7-6.6c1.1-1.9,2.7-3.5,4.6-4.6,1.9-1.1,4.1-1.7,6.6-1.7s3.9.5,5.1,1.6c1.2,1.1,1.8,2.5,1.8,4.4s0,.8-.1,1c0,.2-.3.4-.6.4h-3.5c.2-2-.2-3.5-1-4.5-.9-1.1-2.1-1.6-3.6-1.6-2.2,0-4,.8-5.1,2.5-1.2,1.7-1.8,4-1.8,6.8s.4,4.3,1.1,6.1c.7,1.8,1.8,3.2,3.2,4.2,1.4,1,3.1,1.5,5.1,1.5s2.1-.2,3.2-.5c1.1-.3,2.1-.8,3.1-1.5,0,0,.2,0,.3.2.1.2.2.3,0,.5-1.4,1.2-2.9,2.1-4.3,2.7-1.4.5-2.9.8-4.4.8ZM692.8,677.5v-.8c0,0,13.6-.3,13.6-.3v1h-13.6Z" />
          <path class="cls-1"
            d="M713.2,710.2c-.1,0-.2-.1-.2-.4s0-.4.2-.4c1.8,0,3-.3,3.6-.8.5-.5.8-1.6.8-3.4v-29.9c0-1.7-.3-2.8-1-3.3-.7-.5-2-.8-4-.8s-.2-.1-.2-.4,0-.4.2-.4h7.3c.4,0,.7.1.9.3.2.2.2.6.2,1.3v33.2c0,1.1.2,2,.5,2.6.3.6.9,1,1.7,1.2.9.2,2.1.3,3.8.3s.2.1.2.4,0,.4-.2.4c-1.1,0-2.3,0-3.6,0-1.3,0-2.7,0-4.1,0s-2.2,0-3.3,0c-1.1,0-2,0-2.8,0ZM727.3,694.5c-1.6,0-2.9-.2-4.1-.5-1.2-.4-2.4-1-3.8-2l.9-3.3c1,1.3,2.2,2.4,3.6,3.3,1.3.9,3.1,1.3,5.2,1.3s3.8-.9,5.2-2.8c1.4-1.8,2.1-4.4,2.1-7.8s-.8-6.1-2.3-7.9c-1.6-1.8-3.4-2.7-5.6-2.7s-3.4.5-4.7,1.5c-1.3,1-2.6,2.2-3.8,3.5l-.5-.5c2-2.4,4-4.1,5.9-5.2,1.9-1.1,3.8-1.6,5.7-1.6s3.2.4,4.5,1.3c1.4.9,2.5,2.1,3.4,3.8.9,1.6,1.3,3.6,1.3,6s-.4,4.5-1.3,6.2c-.8,1.7-1.9,3.1-3.2,4.2-1.3,1.1-2.7,1.9-4.2,2.4-1.5.5-2.9.8-4.2.8Z" />
          <path class="cls-1"
            d="M756.4,694.5c-2.7,0-4.9-.6-6.7-1.8-1.7-1.2-3-2.7-3.8-4.5-.8-1.8-1.2-3.7-1.2-5.5s.4-3.8,1.2-5.3c.8-1.6,1.8-2.9,3.1-4,1.3-1.1,2.7-1.9,4.3-2.5,1.6-.6,3.1-.8,4.6-.8s2.3.2,3.3.5c1.1.3,1.9.7,2.6,1.3.7.6,1,1.2,1,1.9s-.2,1-.5,1.3c-.4.4-.9.6-1.6.6s-1.2-.2-1.6-.6c-.4-.4-.8-.9-1.1-1.4-.4-.7-1-1.3-1.6-1.7-.6-.4-1.5-.7-2.7-.7-2.3,0-4,.9-5.3,2.7-1.2,1.8-1.9,4.1-1.9,6.9s.3,3.9,1,5.7c.7,1.8,1.8,3.2,3.3,4.2,1.5,1.1,3.4,1.6,5.8,1.6s2.1-.1,3.2-.4c1-.3,2-.8,2.9-1.6,0,0,.2,0,.3.1.1.2.2.3,0,.4-1.4,1.2-2.8,2.2-4.2,2.7-1.4.6-3,.9-4.7.9Z" />
          <path class="cls-1"
            d="M772.9,688.9v-13.4c0-1.8-.2-2.9-.7-3.4-.5-.5-1.5-.8-3.1-.8s-.2-.1-.2-.4,0-.4.2-.4c.8,0,1.6,0,2.6,0s1.9,0,2.9,0,1.9,0,2.9,0,1.8,0,2.6,0,.1.1.1.4,0,.4-.1.4c-1.7,0-2.7.3-3.2.8-.4.6-.7,1.7-.7,3.4v13.3c0,1.7.2,2.8.7,3.4.4.5,1.5.8,3.2.8s.1.1.1.4,0,.4-.1.4c-.8,0-1.7,0-2.6,0s-1.9,0-2.8,0-2,0-2.9,0-1.8,0-2.6,0-.2-.1-.2-.4,0-.4.2-.4c1.6,0,2.7-.3,3.2-.8.5-.5.7-1.6.7-3.4ZM774.8,690.9l-.8-.8,16.3-16.3.8.8-16.3,16.3ZM789.1,688.9v-13.4c0-1.8-.2-2.9-.7-3.4-.5-.5-1.5-.8-3.1-.8s-.2-.1-.2-.4,0-.4.2-.4c.8,0,1.6,0,2.6,0s1.9,0,2.9,0,1.9,0,2.9,0c1,0,1.8,0,2.6,0s.1.1.1.4,0,.4-.1.4c-1.7,0-2.7.3-3.2.8-.4.6-.7,1.7-.7,3.4v13.3c0,1.7.2,2.8.7,3.4.4.5,1.5.8,3.2.8s.1.1.1.4,0,.4-.1.4c-.8,0-1.7,0-2.6,0-.9,0-1.9,0-2.9,0s-2,0-3,0c-1,0-1.9,0-2.6,0s-.2-.1-.2-.4,0-.4.2-.4c1.6,0,2.7-.3,3.2-.8.5-.5.7-1.6.7-3.4Z" />
          <path class="cls-1"
            d="M805.3,693.7c0,0-.1-.1-.1-.4s0-.4.1-.4c1.6,0,2.7-.3,3.2-.8.5-.5.7-1.6.7-3.4v-13.3c0-1.6-.2-2.7-.5-3.3s-1.2-.8-2.5-.8-2.7.5-3.7,1.4c-.9.9-1.5,2.8-1.6,5.5,0,0-.1.1-.4.1s-.4,0-.4-.1v-2.5c0-1.1,0-2.3,0-3.5,0-1.2,0-2.2,0-2.9s.1-.3.4-.3.4,0,.4.3c0,.6.9.9,2.8,1s4.3.2,7.3.2,3.7,0,5.2,0c1.5,0,2.7-.1,3.5-.3.8-.2,1.3-.5,1.3-.8s.1-.3.4-.3.4,0,.4.3v2.9c0,1.2,0,2.4,0,3.5,0,1.1,0,2,0,2.5s-.1.1-.4.1-.4,0-.4-.1c-.2-2.8-.7-4.6-1.7-5.5-1-.9-2.2-1.4-3.7-1.4s-2,.3-2.3.8c-.3.5-.5,1.6-.5,3.3v13.3c0,1.7.2,2.8.7,3.4.4.5,1.5.8,3.1.8s.2.1.2.4,0,.4-.2.4c-.8,0-1.6,0-2.5,0-.9,0-1.9,0-2.9,0s-1.9,0-2.9,0-1.9,0-2.7,0Z" />
          <path class="cls-1"
            d="M837,694.5c-2.5,0-4.6-.5-6.2-1.6-1.7-1.1-2.9-2.5-3.8-4.3-.8-1.8-1.3-3.6-1.3-5.6s.6-4.6,1.7-6.6c1.1-1.9,2.7-3.5,4.6-4.6,1.9-1.1,4.1-1.7,6.6-1.7s3.9.5,5.1,1.6c1.2,1.1,1.8,2.5,1.8,4.4s0,.8-.1,1c0,.2-.3.4-.6.4h-3.5c.2-2-.2-3.5-1-4.5-.9-1.1-2.1-1.6-3.6-1.6-2.2,0-4,.8-5.1,2.5-1.2,1.7-1.8,4-1.8,6.8s.4,4.3,1.1,6.1c.7,1.8,1.8,3.2,3.2,4.2,1.4,1,3.1,1.5,5.1,1.5s2.1-.2,3.2-.5c1.1-.3,2.1-.8,3.1-1.5,0,0,.2,0,.3.2.1.2.2.3,0,.5-1.4,1.2-2.9,2.1-4.3,2.7-1.4.5-2.9.8-4.4.8ZM828.6,677.5v-.8c0,0,13.6-.3,13.6-.3v1h-13.6Z" />
          <path class="cls-1"
            d="M855.1,693.7c0,0-.1-.1-.1-.4s0-.4.1-.4c1.6,0,2.7-.3,3.2-.8.5-.5.7-1.6.7-3.4v-13.3c0-1.6-.2-2.7-.5-3.3s-1.2-.8-2.5-.8-2.7.5-3.7,1.4c-.9.9-1.5,2.8-1.6,5.5,0,0-.1.1-.4.1s-.4,0-.4-.1v-2.5c0-1.1,0-2.3,0-3.5,0-1.2,0-2.2,0-2.9s.1-.3.4-.3.4,0,.4.3c0,.6.9.9,2.8,1s4.3.2,7.3.2,3.7,0,5.2,0c1.5,0,2.7-.1,3.5-.3.8-.2,1.3-.5,1.3-.8s.1-.3.4-.3.4,0,.4.3v2.9c0,1.2,0,2.4,0,3.5,0,1.1,0,2,0,2.5s-.1.1-.4.1-.4,0-.4-.1c-.2-2.8-.7-4.6-1.7-5.5-1-.9-2.2-1.4-3.7-1.4s-2,.3-2.3.8c-.3.5-.5,1.6-.5,3.3v13.3c0,1.7.2,2.8.7,3.4.4.5,1.5.8,3.1.8s.2.1.2.4,0,.4-.2.4c-.8,0-1.6,0-2.5,0-.9,0-1.9,0-2.9,0s-1.9,0-2.9,0-1.9,0-2.7,0Z" />
          <path class="cls-1"
            d="M882.5,675.6v13.3c0,1.4.3,2.5.9,3.1.6.6,1.9,1,3.8,1s3.3-.5,4.2-1.3,1.4-2.2,1.4-3.9-.5-3.5-1.4-4.7c-1-1.2-2.6-1.8-4.8-1.8s-1.7,0-2.5.2c-.8.2-1.7.5-2.6.9l-.4-.8c1.3-.6,2.6-.9,3.9-1.1,1.3-.2,2.5-.3,3.8-.3,5.3,0,7.9,2.1,7.9,6.2s-.8,4-2.3,5.4c-1.6,1.4-3.5,2.1-5.9,2.1s-1.4,0-2.3,0-1.8,0-2.7-.1-1.8,0-2.5,0-2,0-2.9,0-1.8,0-2.6,0-.2-.1-.2-.4,0-.4.2-.4c1.6,0,2.7-.3,3.2-.8.5-.5.7-1.6.7-3.4v-13.4c0-1.8-.2-2.9-.7-3.4-.5-.5-1.5-.8-3.1-.8s-.2-.1-.2-.4,0-.4.2-.4c.8,0,1.6,0,2.6,0s1.9,0,2.9,0,2.2,0,3.3,0,2,0,2.9,0,.2.1.2.4,0,.4-.2.4c-1.9,0-3.2.3-3.7.8s-.8,1.7-.8,3.4ZM898.5,693.7c-.1,0-.2-.1-.2-.4s0-.4.2-.4c1.7,0,2.7-.3,3.2-.8.4-.5.7-1.6.7-3.4v-13.4c0-1.8-.2-2.9-.7-3.4-.4-.5-1.5-.8-3.1-.8s-.2-.1-.2-.4,0-.4.2-.4c.8,0,1.6,0,2.6,0s2,0,3,0,1.9,0,2.9,0,1.8,0,2.5,0,.2.1.2.4,0,.4-.2.4c-1.6,0-2.6.3-3.1.8-.5.6-.7,1.7-.7,3.4v13.3c0,1.7.2,2.8.7,3.4.5.5,1.5.8,3.1.8s.2.1.2.4,0,.4-.2.4c-.7,0-1.6,0-2.5,0-.9,0-1.9,0-2.8,0s-2,0-3,0-1.8,0-2.6,0Z" />
        </g>
      </g>
    </g>
  </g>
</svg>