<?xml version="1.0" encoding="UTF-8"?>
<svg xmlns="http://www.w3.org/2000/svg" version="1.1" viewBox="0 0 1802.7 587.7">
  <defs>
    <style>
      .cls-1, .cls-2 {
      fill: #a4cbe6;
      }

      .cls-2 {
      fill-rule: evenodd;
      }
    </style>
  </defs>
  <g>
    <g id="_Слой_1" data-name="Слой_1">
      <g>
        <path class="cls-2"
          d="M464.5,390.7h-231.7v-57.9c0-87,16.3-113.4,38.8-113.4s41,19.8,68.3,43.7l8-8.5c19.9-22.1,52.2-57.9,77.6-57.9s39.1,61.1,39.1,113.8v80ZM408.7,232.2c30.4,0,51.9,28.2,51.9,84.2v64.4c-39.4-41.4-74-75.7-116-113.4,19.9-19.8,42-35.3,64.1-35.3ZM340.1,271.7l.3.6c5.4,5,97,93.4,102,98h-189.3c5.7-6.4,77.4-89.7,87-98.6ZM236.6,381.8v-38.6c0-71.5,33.6-90.8,55.8-90.8s31.1,7.1,42.9,16c-35.6,38.1-66.3,73.8-98.7,113.4Z" />
        <g>
          <path class="cls-1"
            d="M568.2,390.1c-3.3,0-7.6-.2-13-.5-5.4-.3-10.9-.6-16.4-.9-5.6-.3-10.6-.5-15.2-.5-6.8,0-13.4.1-19.7.3-6.3.2-12,.3-17.2.3s-.6-.6-.6-1.9.2-1.9.6-1.9c7.6,0,13.4-.5,17.2-1.6,3.8-1,6.5-3.1,7.9-6.2,1.4-3.1,2.2-7.6,2.2-13.6v-143.5c0-6-.7-10.5-2-13.5-1.3-3-3.9-5.1-7.6-6.2-3.7-1.1-9.4-1.7-17.1-1.7s-.9-.6-.9-1.9.3-1.9.9-1.9h122.2c1.2,0,2.1.3,2.5.8.4.5.7,1.5.9,2.9l4,39.4c0,.6-.5,1-1.5,1.1-1,.1-1.8-.2-2.2-.8-2.1-11.6-6.3-20.7-12.7-27.3-6.4-6.6-14.5-9.9-24.2-9.9h-17.7c-7,0-12.3.5-15.8,1.6-3.5,1-5.9,3.1-7.1,6-1.2,3-1.9,7.4-1.9,13.2v141.7c0,4.3.7,8.1,2,11.2,1.3,3.1,4,5.5,8.1,7.1,4,1.7,10.1,2.5,18.1,2.5,16.7,0,28.8-3.8,36.1-11.5,7.3-7.6,11-19.1,11-34.4s-2.4-23.7-7.1-31.5c-4.8-7.8-11.4-13.3-20-16.6-8.6-3.3-18.8-5-30.5-5s-8.1.3-12.6.8c-4.4.5-8.9,1-13.5,1.4l-.6-5.9c5.8-.8,11.5-1.4,17.2-1.9,5.7-.4,11.2-.6,16.6-.6,13.8,0,26.2,1.6,37,4.8,10.9,3.2,19.4,8.5,25.7,15.8,6.3,7.3,9.5,17.5,9.5,30.5s-2.6,22.1-7.9,31c-5.3,8.9-12.6,15.9-22,20.9-9.4,5.1-20.3,7.6-32.7,7.6Z" />
          <path class="cls-1"
            d="M657.2,388.9c-.4,0-.6-.6-.6-1.9s.2-1.9.6-1.9c7.6,0,13.4-.5,17.4-1.6,3.9-1,6.6-3.1,7.9-6.2,1.3-3.1,2-7.6,2-13.6v-143.5c0-6-.7-10.5-2-13.5-1.3-3-3.9-5.1-7.8-6.2-3.8-1.1-9.6-1.7-17.2-1.7s-.6-.6-.6-1.9.2-1.9.6-1.9c5,0,10.6.2,16.9.5,6.3.3,12.9.5,19.7.5s14.6-.2,20.8-.5c6.2-.3,11.8-.5,16.7-.5s.6.6.6,1.9-.2,1.9-.6,1.9c-7.6,0-13.4.6-17.4,1.9-3.9,1.2-6.6,3.4-7.9,6.5-1.3,3.1-2,7.6-2,13.6v142.9c0,6,.6,10.5,1.9,13.6,1.2,3.1,3.9,5.2,7.9,6.2,4,1,9.9,1.6,17.5,1.6s.6.6.6,1.9-.2,1.9-.6,1.9c-5.2,0-10.8-.1-16.9-.3-6.1-.2-13-.3-20.6-.3s-13.4.1-19.8.3c-6.4.2-12.1.3-17.1.3ZM697.5,366.5l-5.3-5,136.4-145.4,5,4.7-136.1,145.7ZM792.4,388.9c-.4,0-.6-.6-.6-1.9s.2-1.9.6-1.9c8.1,0,14-.5,17.8-1.6,3.8-1,6.4-3.1,7.6-6.2s1.9-7.6,1.9-13.6v-142.9c0-6-.6-10.5-1.9-13.6-1.2-3.1-3.8-5.3-7.6-6.5-3.8-1.2-9.8-1.9-17.8-1.9s-.6-.6-.6-1.9.2-1.9.6-1.9c5.2,0,10.8.2,16.9.5,6.1.3,13,.5,20.6.5s13.4-.2,19.8-.5c6.4-.3,12.1-.5,17.1-.5s.6.6.6,1.9-.2,1.9-.6,1.9c-7.6,0-13.4.6-17.4,1.7-3.9,1.1-6.5,3.2-7.8,6.2-1.2,3-1.9,7.5-1.9,13.5v143.5c0,6,.6,10.5,1.9,13.6,1.2,3.1,3.8,5.2,7.8,6.2,3.9,1,9.7,1.6,17.4,1.6s.6.6.6,1.9-.2,1.9-.6,1.9c-5,0-10.6-.1-17.1-.3-6.4-.2-13-.3-19.8-.3s-14.5.1-20.6.3c-6.1.2-11.7.3-16.9.3Z" />
          <path class="cls-1"
            d="M895.6,392.6c-4.3,0-8-.9-10.9-2.8-2.9-1.9-4.3-4.8-4.3-8.7s1.3-6.3,4-7.8c2.7-1.4,5.8-2.2,9.3-2.2h6.5c7.4,0,14.2-3,20.2-9.1,6-6.1,11.3-14.3,15.8-24.5,4.5-10.2,8.4-21.7,11.5-34.4,3.1-12.7,5.4-25.7,7-38.9,1.6-13.2,2.3-25.8,2.3-37.8s-.7-10.5-2.2-14.7c-1.4-4.2-4.3-7.4-8.7-9.6-4.3-2.2-11-3.3-19.8-3.3s-.9-.6-.9-1.9.3-1.9.9-1.9h148.2c.6,0,.9.6.9,1.9s-.3,1.9-.9,1.9c-7.6,0-13.4.6-17.4,1.7-3.9,1.1-6.5,3.2-7.8,6.2-1.2,3-1.9,7.5-1.9,13.5v143.5c0,6,.6,10.5,1.9,13.6,1.2,3.1,3.8,5.2,7.8,6.2,3.9,1,9.7,1.6,17.4,1.6s.9.6.9,1.9-.3,1.9-.9,1.9c-4.8,0-10.3-.1-16.7-.3-6.4-.2-13-.3-19.8-.3s-14,.1-20.3.3c-6.3.2-11.9.3-16.9.3s-.9-.6-.9-1.9.3-1.9.9-1.9c7.9,0,13.7-.5,17.5-1.6,3.8-1,6.4-3.1,7.6-6.2,1.2-3.1,1.9-7.6,1.9-13.6v-142.3c0-6.4-.4-11-1.2-13.6-.8-2.7-2.9-4.3-6.4-4.8-3.4-.5-9-.8-16.9-.8h-15.8c-5.6,0-10.1.5-13.5,1.5-3.4,1-5.8,3.3-7.3,6.7-1.4,3.4-2.2,8.7-2.2,16s-.4,18.1-1.2,29.5c-.8,11.4-2.3,23.3-4.3,35.8-2.1,12.5-4.8,24.7-8.1,36.6-3.3,11.9-7.5,22.7-12.6,32.4-5.1,9.7-11.1,17.5-18.1,23.3-7,5.8-15.2,8.7-24.5,8.7Z" />
          <path class="cls-1"
            d="M1096.9,388.9c-.4,0-.6-.6-.6-1.9s.2-1.9.6-1.9c7.6,0,13.4-.5,17.4-1.6,3.9-1,6.6-3.1,7.9-6.2,1.3-3.1,2-7.6,2-13.6v-143.5c0-6-.7-10.5-2-13.5-1.3-3-3.9-5.1-7.8-6.2-3.8-1.1-9.6-1.7-17.2-1.7s-.6-.6-.6-1.9.2-1.9.6-1.9c5,0,10.6.2,16.9.5,6.3.3,12.9.5,19.7.5s14.6-.2,20.8-.5c6.2-.3,11.8-.5,16.7-.5s.6.6.6,1.9-.2,1.9-.6,1.9c-7.6,0-13.4.6-17.4,1.9-3.9,1.2-6.6,3.4-7.9,6.5-1.3,3.1-2,7.6-2,13.6v142.9c0,6,.6,10.5,1.9,13.6,1.2,3.1,3.9,5.2,7.9,6.2,4,1,9.9,1.6,17.5,1.6s.6.6.6,1.9-.2,1.9-.6,1.9c-5.2,0-10.8-.1-16.9-.3-6.1-.2-13-.3-20.6-.3s-13.4.1-19.8.3c-6.4.2-12.1.3-17.1.3ZM1137.2,366.5l-5.3-5,136.4-145.4,5,4.7-136.1,145.7ZM1232,388.9c-.4,0-.6-.6-.6-1.9s.2-1.9.6-1.9c8.1,0,14-.5,17.8-1.6,3.8-1,6.4-3.1,7.6-6.2,1.2-3.1,1.9-7.6,1.9-13.6v-142.9c0-6-.6-10.5-1.9-13.6-1.2-3.1-3.8-5.3-7.6-6.5-3.8-1.2-9.8-1.9-17.8-1.9s-.6-.6-.6-1.9.2-1.9.6-1.9c5.2,0,10.8.2,16.9.5,6.1.3,13,.5,20.6.5s13.4-.2,19.8-.5c6.4-.3,12.1-.5,17.1-.5s.6.6.6,1.9-.2,1.9-.6,1.9c-7.6,0-13.4.6-17.4,1.7-3.9,1.1-6.5,3.2-7.8,6.2-1.2,3-1.9,7.5-1.9,13.5v143.5c0,6,.6,10.5,1.9,13.6,1.2,3.1,3.8,5.2,7.8,6.2,3.9,1,9.7,1.6,17.4,1.6s.6.6.6,1.9-.2,1.9-.6,1.9c-5,0-10.6-.1-17.1-.3-6.4-.2-13-.3-19.8-.3s-14.5.1-20.6.3c-6.1.2-11.7.3-16.9.3Z" />
          <path class="cls-1"
            d="M1354.5,355.1l3.1-152.9,7.4.6-3.1,152.2c-.2,10.7,1.6,18.4,5.4,23.1,3.8,4.7,10.8,7,20.9,7s.6.6.6,1.9-.2,1.9-.6,1.9c-4.5,0-9.3-.1-14.1-.3-4.9-.2-10.2-.3-16-.3s-10.4.1-15.2.3c-4.8.2-9.2.3-13.3.3s-.6-.6-.6-1.9.2-1.9.6-1.9c8.7,0,14.9-2.3,18.8-7,3.8-4.7,5.8-12.3,6-23.1ZM1569.4,385.1c.6,0,.9.6.9,1.9s-.3,1.9-.9,1.9c-5,0-10.6-.1-16.9-.3-6.3-.2-12.9-.3-19.7-.3s-12.8.1-18.4.3c-5.7.2-10.8.3-15.3.3s-.6-.6-.6-1.9.2-1.9.6-1.9c10.3,0,16.9-1.3,19.8-4,2.9-2.7,4.1-8.5,3.7-17.4l-5.9-149.8,10.2-14.3-80.6,187c-.2.8-1,1.2-2.5,1.2s-2.4-.4-2.8-1.2l-77.8-165.9c-7-14.7-17.5-22-31.3-22s-.6-.6-.6-1.9.2-1.9.6-1.9c3.3,0,6.9.1,10.7.3,3.8.2,7,.3,9.5.3s6.4-.1,9.1-.3c2.8-.2,4.9-.3,6.4-.3,2.9,0,5.2.9,6.8,2.8,1.7,1.9,4.1,6.3,7.4,13.3l70.7,148.8-9.6,16.1,75.7-173.3c1-2.5,2.4-4.4,4-5.7,1.7-1.3,3.4-2,5.3-2s2.9.1,5,.3c2.1.2,4.5.3,7.4.3,5.6,0,10.1-.1,13.6-.3,3.5-.2,7.2-.3,11.2-.3s.6.6.6,1.9-.2,1.9-.6,1.9c-9.9,0-17.3,1.4-22,4.3-4.8,2.9-6.9,8.6-6.5,17.1l6.2,143.5c.2,6,.9,10.5,2.2,13.6,1.2,3.1,3.8,5.2,7.6,6.2,3.8,1,9.5,1.6,16.9,1.6Z" />
        </g>
      </g>
    </g>
  </g>
</svg>