<?xml version="1.0" encoding="UTF-8"?>
<svg xmlns="http://www.w3.org/2000/svg" version="1.1" viewBox="0 0 1192.1 437.2">
  <defs>
    <style>
      .cls-1, .cls-2 {
      fill: #a4cbe6;
      }

      .cls-2 {
      fill-rule: evenodd;
      }
    </style>
  </defs>
  <g>
    <g id="_Слой_1" data-name="Слой_1">
      <g>
        <g>
          <path class="cls-1"
            d="M488.5,198c10,9.6,15,21.5,15,35.8s-2.7,20.9-8,29.8c-5.4,8.9-12.7,15.9-22.1,20.9-9.4,5.1-19.8,7.6-31.3,7.6s-14.2-.3-22.2-.9c-2.9-.2-6.3-.4-10.2-.6-3.9-.2-8.2-.3-13-.3l-21,.3c-3.7.2-9,.3-15.8.3s-.6-.6-.6-1.9.2-1.9.6-1.9c7.8,0,13.6-.6,17.3-1.7,3.7-1.1,6.3-3.1,7.7-6,1.4-2.9,2.2-7.4,2.2-13.6V122.2c0-6.2-.7-10.7-2-13.6-1.3-2.9-3.9-4.9-7.6-6-3.7-1.1-9.4-1.7-17-1.7s-.9-.6-.9-1.9.3-1.9.9-1.9l15.1.3c8.6.4,15.6.6,21,.6s7.2-.1,10.3-.3c3.2-.2,5.9-.4,8.2-.6,6.4-.6,12.4-.9,17.9-.9,17.3,0,30.3,3.8,38.9,11.3,8.6,7.5,13,17.4,13,29.6s-3.2,18.8-9.6,26.5c-6.4,7.8-15.1,13.8-26.3,18.1,16.3,1.2,29.4,6.7,39.4,16.3ZM414.3,102c-2.6.8-4.5,2.8-5.7,5.9-1.2,3.1-1.9,8.1-1.9,14.9v58.9l13.9.3c15,0,26.1-3.9,33.4-11.6,7.2-7.8,10.8-18,10.8-30.8s-3.1-20.9-9.4-28.1c-6.3-7.1-16-10.7-29.2-10.7s-9.3.4-11.9,1.2ZM470.9,274.9c7.3-7.8,11-18.9,11-33.3s-4.6-28.4-13.7-38.1c-9.2-9.7-21.8-14.7-37.8-14.9-6.6-.2-14.4,0-23.5.6v76.6c0,5.4.8,9.5,2.3,12.4,1.5,2.9,4.5,5,9,6.4,4.4,1.3,10.9,2,19.3,2,15,0,26.2-3.9,33.5-11.6Z" />
          <path class="cls-1"
            d="M575.6,279.7c1.1,2.9,3.2,4.9,6.3,5.9,3.1,1,8.1,1.5,15.1,1.5s.6.6.6,1.9-.2,1.9-.6,1.9c-5.8,0-10.3-.1-13.6-.3l-19.5-.3-18.2.3c-3.5.2-8.2.3-14.2.3s-.6-.6-.6-1.9.2-1.9.6-1.9c7,0,12-.5,15.1-1.5,3.1-1,5.2-3,6.3-5.9,1.1-2.9,1.7-7.5,1.7-14v-94.9c0-6.2-.6-10.7-1.7-13.6-1.1-2.9-3.3-4.9-6.5-6-3.2-1.1-8.2-1.7-15-1.7s-.6-.6-.6-1.9.2-1.9.6-1.9l14.2.3c7.4.4,13.5.6,18.2.6s11.9-.2,19.8-.6l13.3-.3c.4,0,.6.6.6,1.9s-.2,1.9-.6,1.9c-6.6,0-11.5.6-14.8,1.9-3.3,1.2-5.5,3.4-6.6,6.4-1.1,3-1.7,7.6-1.7,13.8v94.2c0,6.4.6,11.1,1.7,14Z" />
          <path class="cls-1"
            d="M661.9,264.5c0,6,.6,10.4,1.7,13.3,1.1,2.9,3.3,5,6.5,6.2,3.2,1.2,8,1.9,14.4,1.9h20.4c10.9,0,19.6-3.4,26.1-10.2,6.5-6.8,10.9-16.2,13.1-28.2,0-.4.4-.6,1.2-.6s1.2.1,1.7.3c.5.2.8.5.8.9-1.4,9.5-2.2,22.2-2.2,38.1s-.4,2.8-1.1,3.6c-.7.7-1.9,1.1-3.6,1.1h-120.8c-.4,0-.6-.6-.6-1.9s.2-1.9.6-1.9c6.8,0,11.7-.5,14.8-1.5,3.1-1,5.1-3,6.2-6,1-3,1.5-7.6,1.5-13.8v-94.9c0-6.2-.6-10.7-1.7-13.6-1.1-2.9-3.2-4.9-6.3-6-3.1-1.1-7.9-1.7-14.5-1.7s-.6-.6-.6-1.9.2-1.9.6-1.9l13.9.3c7.8.4,13.9.6,18.2.6s11.6-.2,19.5-.6l13-.3c.6,0,.9.6.9,1.9s-.3,1.9-.9,1.9c-6.8,0-11.7.6-14.8,1.7-3.1,1.1-5.2,3.2-6.3,6.2-1.1,3-1.7,7.6-1.7,13.8v93.3Z" />
          <path class="cls-1"
            d="M809,279.7c1.1,2.9,3.2,4.9,6.3,5.9,3.1,1,8.1,1.5,15.1,1.5s.6.6.6,1.9-.2,1.9-.6,1.9c-5.8,0-10.3-.1-13.6-.3l-19.5-.3-18.2.3c-3.5.2-8.2.3-14.2.3s-.6-.6-.6-1.9.2-1.9.6-1.9c7,0,12-.5,15.1-1.5,3.1-1,5.2-3,6.3-5.9,1.1-2.9,1.7-7.5,1.7-14v-94.9c0-6.2-.6-10.7-1.7-13.6-1.1-2.9-3.3-4.9-6.5-6-3.2-1.1-8.2-1.7-15-1.7s-.6-.6-.6-1.9.2-1.9.6-1.9l14.2.3c7.4.4,13.5.6,18.2.6s11.9-.2,19.8-.6l13.3-.3c.4,0,.6.6.6,1.9s-.2,1.9-.6,1.9c-6.6,0-11.5.6-14.8,1.9-3.3,1.2-5.5,3.4-6.6,6.4-1.1,3-1.7,7.6-1.7,13.8v94.2c0,6.4.6,11.1,1.7,14Z" />
          <path class="cls-1"
            d="M1047,289c0,1.2-.2,1.9-.6,1.9-5.8,0-10.3-.1-13.6-.3l-18.2-.3-21,.3c-3.5.2-8.3.3-14.5.3s-.6-.6-.6-1.9.2-1.9.6-1.9c7.6,0,13.3-.6,17-1.7,3.7-1.1,6.2-3.1,7.4-6,1.2-2.9,1.6-7.4,1.2-13.6l-3.7-104.5-53.1,127.4c-.4.8-1.1,1.2-2.2,1.2s-2.1-.4-2.5-1.2l-59-117.2-.6-1.2-2.8,86.8c-.2,11,1.2,18.7,4.3,23.2,3.1,4.5,8.3,6.8,15.8,6.8s.9.6.9,1.9-.3,1.9-.9,1.9c-4.3,0-7.6-.1-9.9-.3l-13.6-.3-13,.3c-2.7.2-6.4.3-11.1.3s-.6-.6-.6-1.9.2-1.9.6-1.9c7.6,0,13-2.3,16.1-6.8,3.1-4.5,4.8-12.3,5.2-23.2l3.1-96.1c-6-7.6-13.3-11.5-21.9-11.5s-.9-.6-.9-1.9.3-1.9.9-1.9l17,.3,14.8-.3c2.7,0,4.8.9,6.5,2.8,1.6,1.9,4.2,6.3,7.7,13.3l50.7,101.1,45.7-109.4c.8-2.3,2.1-4.1,3.9-5.6,1.7-1.4,3.6-2.2,5.4-2.2l16.4.3,20.7-.3c.4,0,.6.6.6,1.9s-.2,1.9-.6,1.9c-9.3,0-15.8,1.4-19.5,4.2s-5.4,8.3-4.9,16.6l3.7,95.5c.4,6.4,1.1,11.1,2.2,14,1,2.9,3,4.9,6,5.9,3,1,7.8,1.5,14.4,1.5s.6.6.6,1.9Z" />
        </g>
        <path class="cls-2"
          d="M339.4,290.8h-194.3v-48.5c0-73,13.7-95,32.5-95s34.4,16.6,57.2,36.7l6.7-7.1c16.7-18.5,43.8-48.5,65-48.5s32.8,51.3,32.8,95.4v67ZM292.6,157.9c25.5,0,43.5,23.7,43.5,70.6v54c-33.1-34.7-62.1-63.5-97.3-95,16.7-16.6,35.2-29.6,53.7-29.6ZM235.1,191.1l.3.5c4.5,4.2,81.3,78.3,85.5,82.2h-158.7c4.8-5.4,64.9-75.2,73-82.7ZM148.4,283.3v-32.3c0-59.9,28.2-76.1,46.8-76.1s26.1,5.9,36,13.4c-29.8,31.9-55.6,61.9-82.8,95Z" />
      </g>
    </g>
  </g>
</svg>