<?xml version="1.0" encoding="UTF-8"?>
<svg xmlns="http://www.w3.org/2000/svg" version="1.1" viewBox="0 0 1080 1080">
  <defs>
    <style>
      .cls-1 {
      fill: #0b314c;
      fill-rule: evenodd;
      }
    </style>
  </defs>
  <g>
    <g id="_Слой_1" data-name="Слой_1">
      <path class="cls-1"
        d="M882.9,826.8H197.1v-171.2c0-257.5,48.4-335.5,114.8-335.5s121.4,58.5,202,129.5l23.7-25.1c58.8-65.4,154.6-171.2,229.5-171.2s115.7,181,115.7,336.9v236.7ZM717.9,357.6c90.1,0,153.7,83.5,153.7,249.2v190.7c-116.7-122.5-219.1-224.1-343.4-335.5,58.8-58.5,124.3-104.4,189.7-104.4ZM514.9,474.6l1,1.7c16,14.8,287.1,276.5,301.8,290.1H257.3c16.8-19,229.2-265.6,257.6-291.8ZM208.5,800.3v-114.2c0-211.6,99.6-268.7,165-268.7s92,20.9,127.1,47.3c-105.3,112.8-196.3,218.6-292.2,335.5Z" />
    </g>
  </g>
</svg>